<mxfile host="Electron" modified="2023-11-30T10:58:45.435Z" agent="Mozilla/5.0 (Macintosh; Intel Mac OS X 10_15_7) AppleWebKit/537.36 (KHTML, like Gecko) draw.io/22.1.2 Chrome/114.0.5735.289 Electron/25.9.4 Safari/537.36" etag="LlI38_rsXpSTwNHgcG9V" version="22.1.2" type="device">
  <diagram name="Page-1" id="Ox93xVhrkDz3i86uPsdo">
    <mxGraphModel dx="1806" dy="2448" grid="1" gridSize="10" guides="1" tooltips="1" connect="1" arrows="1" fold="1" page="1" pageScale="1" pageWidth="850" pageHeight="1100" math="0" shadow="0">
      <root>
        <mxCell id="0" />
        <mxCell id="1" parent="0" />
        <mxCell id="xD2Bt0CjhpOkZUO3H_ut-1" value="x" style="ellipse;whiteSpace=wrap;html=1;aspect=fixed;" vertex="1" parent="1">
          <mxGeometry x="85" y="140" width="40" height="40" as="geometry" />
        </mxCell>
        <mxCell id="xD2Bt0CjhpOkZUO3H_ut-4" value="y" style="ellipse;whiteSpace=wrap;html=1;aspect=fixed;" vertex="1" parent="1">
          <mxGeometry x="285" y="140" width="40" height="40" as="geometry" />
        </mxCell>
        <mxCell id="xD2Bt0CjhpOkZUO3H_ut-5" value="A" style="ellipse;whiteSpace=wrap;html=1;aspect=fixed;" vertex="1" parent="1">
          <mxGeometry x="85" y="300" width="40" height="40" as="geometry" />
        </mxCell>
        <mxCell id="xD2Bt0CjhpOkZUO3H_ut-6" value="B" style="ellipse;whiteSpace=wrap;html=1;aspect=fixed;" vertex="1" parent="1">
          <mxGeometry x="285" y="300" width="40" height="40" as="geometry" />
        </mxCell>
        <mxCell id="xD2Bt0CjhpOkZUO3H_ut-7" value="f" style="ellipse;whiteSpace=wrap;html=1;aspect=fixed;" vertex="1" parent="1">
          <mxGeometry x="190" y="440" width="40" height="40" as="geometry" />
        </mxCell>
        <mxCell id="xD2Bt0CjhpOkZUO3H_ut-8" value="" style="endArrow=classic;html=1;rounded=0;entryX=0.5;entryY=0;entryDx=0;entryDy=0;exitX=0.5;exitY=1;exitDx=0;exitDy=0;" edge="1" parent="1" source="xD2Bt0CjhpOkZUO3H_ut-1" target="xD2Bt0CjhpOkZUO3H_ut-5">
          <mxGeometry width="50" height="50" relative="1" as="geometry">
            <mxPoint x="315" y="260" as="sourcePoint" />
            <mxPoint x="365" y="210" as="targetPoint" />
          </mxGeometry>
        </mxCell>
        <mxCell id="xD2Bt0CjhpOkZUO3H_ut-9" value="&lt;font style=&quot;font-size: 15px;&quot;&gt;2&lt;/font&gt;" style="edgeLabel;html=1;align=center;verticalAlign=middle;resizable=0;points=[];" vertex="1" connectable="0" parent="xD2Bt0CjhpOkZUO3H_ut-8">
          <mxGeometry x="-0.1333" y="-3" relative="1" as="geometry">
            <mxPoint as="offset" />
          </mxGeometry>
        </mxCell>
        <mxCell id="xD2Bt0CjhpOkZUO3H_ut-10" value="" style="endArrow=classic;html=1;rounded=0;entryX=0.5;entryY=0;entryDx=0;entryDy=0;exitX=0.5;exitY=1;exitDx=0;exitDy=0;" edge="1" parent="1">
          <mxGeometry width="50" height="50" relative="1" as="geometry">
            <mxPoint x="304.68000000000006" y="180" as="sourcePoint" />
            <mxPoint x="304.68000000000006" y="300" as="targetPoint" />
          </mxGeometry>
        </mxCell>
        <mxCell id="xD2Bt0CjhpOkZUO3H_ut-11" value="&lt;font style=&quot;font-size: 15px;&quot;&gt;1&lt;/font&gt;" style="edgeLabel;html=1;align=center;verticalAlign=middle;resizable=0;points=[];" vertex="1" connectable="0" parent="xD2Bt0CjhpOkZUO3H_ut-10">
          <mxGeometry x="-0.1333" y="-3" relative="1" as="geometry">
            <mxPoint as="offset" />
          </mxGeometry>
        </mxCell>
        <mxCell id="xD2Bt0CjhpOkZUO3H_ut-12" value="" style="endArrow=classic;html=1;rounded=0;" edge="1" parent="1" source="xD2Bt0CjhpOkZUO3H_ut-4" target="xD2Bt0CjhpOkZUO3H_ut-5">
          <mxGeometry width="50" height="50" relative="1" as="geometry">
            <mxPoint x="125" y="200" as="sourcePoint" />
            <mxPoint x="125" y="320" as="targetPoint" />
          </mxGeometry>
        </mxCell>
        <mxCell id="xD2Bt0CjhpOkZUO3H_ut-13" value="&lt;font style=&quot;font-size: 15px;&quot;&gt;3&lt;/font&gt;" style="edgeLabel;html=1;align=center;verticalAlign=middle;resizable=0;points=[];" vertex="1" connectable="0" parent="xD2Bt0CjhpOkZUO3H_ut-12">
          <mxGeometry x="-0.1333" y="-3" relative="1" as="geometry">
            <mxPoint as="offset" />
          </mxGeometry>
        </mxCell>
        <mxCell id="xD2Bt0CjhpOkZUO3H_ut-14" value="" style="endArrow=classic;html=1;rounded=0;" edge="1" parent="1" source="xD2Bt0CjhpOkZUO3H_ut-1" target="xD2Bt0CjhpOkZUO3H_ut-6">
          <mxGeometry width="50" height="50" relative="1" as="geometry">
            <mxPoint x="299" y="182" as="sourcePoint" />
            <mxPoint x="131" y="317" as="targetPoint" />
          </mxGeometry>
        </mxCell>
        <mxCell id="xD2Bt0CjhpOkZUO3H_ut-15" value="&lt;font style=&quot;font-size: 15px;&quot;&gt;1&lt;/font&gt;" style="edgeLabel;html=1;align=center;verticalAlign=middle;resizable=0;points=[];" vertex="1" connectable="0" parent="xD2Bt0CjhpOkZUO3H_ut-14">
          <mxGeometry x="-0.1333" y="-3" relative="1" as="geometry">
            <mxPoint as="offset" />
          </mxGeometry>
        </mxCell>
        <mxCell id="xD2Bt0CjhpOkZUO3H_ut-16" value="" style="endArrow=classic;html=1;rounded=0;" edge="1" parent="1" source="xD2Bt0CjhpOkZUO3H_ut-5" target="xD2Bt0CjhpOkZUO3H_ut-7">
          <mxGeometry width="50" height="50" relative="1" as="geometry">
            <mxPoint x="115" y="190" as="sourcePoint" />
            <mxPoint x="115" y="310" as="targetPoint" />
          </mxGeometry>
        </mxCell>
        <mxCell id="xD2Bt0CjhpOkZUO3H_ut-17" value="&lt;font style=&quot;font-size: 15px;&quot;&gt;1&lt;/font&gt;" style="edgeLabel;html=1;align=center;verticalAlign=middle;resizable=0;points=[];" vertex="1" connectable="0" parent="xD2Bt0CjhpOkZUO3H_ut-16">
          <mxGeometry x="-0.1333" y="-3" relative="1" as="geometry">
            <mxPoint as="offset" />
          </mxGeometry>
        </mxCell>
        <mxCell id="xD2Bt0CjhpOkZUO3H_ut-18" value="" style="endArrow=classic;html=1;rounded=0;" edge="1" parent="1" source="xD2Bt0CjhpOkZUO3H_ut-6" target="xD2Bt0CjhpOkZUO3H_ut-7">
          <mxGeometry width="50" height="50" relative="1" as="geometry">
            <mxPoint x="127" y="346" as="sourcePoint" />
            <mxPoint x="208" y="454" as="targetPoint" />
          </mxGeometry>
        </mxCell>
        <mxCell id="xD2Bt0CjhpOkZUO3H_ut-19" value="&lt;font style=&quot;font-size: 15px;&quot;&gt;-1&lt;/font&gt;" style="edgeLabel;html=1;align=center;verticalAlign=middle;resizable=0;points=[];" vertex="1" connectable="0" parent="xD2Bt0CjhpOkZUO3H_ut-18">
          <mxGeometry x="-0.1333" y="-3" relative="1" as="geometry">
            <mxPoint as="offset" />
          </mxGeometry>
        </mxCell>
        <mxCell id="xD2Bt0CjhpOkZUO3H_ut-21" value="[4,6]" style="text;html=1;align=center;verticalAlign=middle;resizable=0;points=[];autosize=1;strokeColor=none;fillColor=none;" vertex="1" parent="1">
          <mxGeometry x="75" y="110" width="50" height="30" as="geometry" />
        </mxCell>
        <mxCell id="xD2Bt0CjhpOkZUO3H_ut-22" value="[1,5]" style="text;html=1;align=center;verticalAlign=middle;resizable=0;points=[];autosize=1;strokeColor=none;fillColor=none;" vertex="1" parent="1">
          <mxGeometry x="280" y="110" width="50" height="30" as="geometry" />
        </mxCell>
        <mxCell id="xD2Bt0CjhpOkZUO3H_ut-29" value="1. Naive interval propagation" style="text;html=1;align=center;verticalAlign=middle;resizable=0;points=[];autosize=1;strokeColor=none;fillColor=none;" vertex="1" parent="1">
          <mxGeometry x="330" y="30" width="180" height="30" as="geometry" />
        </mxCell>
        <mxCell id="xD2Bt0CjhpOkZUO3H_ut-31" value="Lets consider the below DNN example" style="text;html=1;align=center;verticalAlign=middle;resizable=0;points=[];autosize=1;strokeColor=none;fillColor=none;" vertex="1" parent="1">
          <mxGeometry x="190" y="-565" width="230" height="30" as="geometry" />
        </mxCell>
        <mxCell id="xD2Bt0CjhpOkZUO3H_ut-32" value="x" style="ellipse;whiteSpace=wrap;html=1;aspect=fixed;" vertex="1" parent="1">
          <mxGeometry x="250" y="-430" width="40" height="40" as="geometry" />
        </mxCell>
        <mxCell id="xD2Bt0CjhpOkZUO3H_ut-33" value="y" style="ellipse;whiteSpace=wrap;html=1;aspect=fixed;" vertex="1" parent="1">
          <mxGeometry x="450" y="-430" width="40" height="40" as="geometry" />
        </mxCell>
        <mxCell id="xD2Bt0CjhpOkZUO3H_ut-34" value="A" style="ellipse;whiteSpace=wrap;html=1;aspect=fixed;" vertex="1" parent="1">
          <mxGeometry x="250" y="-270" width="40" height="40" as="geometry" />
        </mxCell>
        <mxCell id="xD2Bt0CjhpOkZUO3H_ut-35" value="B" style="ellipse;whiteSpace=wrap;html=1;aspect=fixed;" vertex="1" parent="1">
          <mxGeometry x="450" y="-270" width="40" height="40" as="geometry" />
        </mxCell>
        <mxCell id="xD2Bt0CjhpOkZUO3H_ut-36" value="f" style="ellipse;whiteSpace=wrap;html=1;aspect=fixed;" vertex="1" parent="1">
          <mxGeometry x="355" y="-130" width="40" height="40" as="geometry" />
        </mxCell>
        <mxCell id="xD2Bt0CjhpOkZUO3H_ut-37" value="" style="endArrow=classic;html=1;rounded=0;entryX=0.5;entryY=0;entryDx=0;entryDy=0;exitX=0.5;exitY=1;exitDx=0;exitDy=0;" edge="1" parent="1" source="xD2Bt0CjhpOkZUO3H_ut-32" target="xD2Bt0CjhpOkZUO3H_ut-34">
          <mxGeometry width="50" height="50" relative="1" as="geometry">
            <mxPoint x="480" y="-310" as="sourcePoint" />
            <mxPoint x="530" y="-360" as="targetPoint" />
          </mxGeometry>
        </mxCell>
        <mxCell id="xD2Bt0CjhpOkZUO3H_ut-38" value="&lt;font style=&quot;font-size: 15px;&quot;&gt;2&lt;/font&gt;" style="edgeLabel;html=1;align=center;verticalAlign=middle;resizable=0;points=[];" vertex="1" connectable="0" parent="xD2Bt0CjhpOkZUO3H_ut-37">
          <mxGeometry x="-0.1333" y="-3" relative="1" as="geometry">
            <mxPoint as="offset" />
          </mxGeometry>
        </mxCell>
        <mxCell id="xD2Bt0CjhpOkZUO3H_ut-39" value="" style="endArrow=classic;html=1;rounded=0;entryX=0.5;entryY=0;entryDx=0;entryDy=0;exitX=0.5;exitY=1;exitDx=0;exitDy=0;" edge="1" parent="1">
          <mxGeometry width="50" height="50" relative="1" as="geometry">
            <mxPoint x="469.68000000000006" y="-390" as="sourcePoint" />
            <mxPoint x="469.68000000000006" y="-270" as="targetPoint" />
          </mxGeometry>
        </mxCell>
        <mxCell id="xD2Bt0CjhpOkZUO3H_ut-40" value="&lt;font style=&quot;font-size: 15px;&quot;&gt;1&lt;/font&gt;" style="edgeLabel;html=1;align=center;verticalAlign=middle;resizable=0;points=[];" vertex="1" connectable="0" parent="xD2Bt0CjhpOkZUO3H_ut-39">
          <mxGeometry x="-0.1333" y="-3" relative="1" as="geometry">
            <mxPoint as="offset" />
          </mxGeometry>
        </mxCell>
        <mxCell id="xD2Bt0CjhpOkZUO3H_ut-41" value="" style="endArrow=classic;html=1;rounded=0;" edge="1" parent="1" source="xD2Bt0CjhpOkZUO3H_ut-33" target="xD2Bt0CjhpOkZUO3H_ut-34">
          <mxGeometry width="50" height="50" relative="1" as="geometry">
            <mxPoint x="290" y="-370" as="sourcePoint" />
            <mxPoint x="290" y="-250" as="targetPoint" />
          </mxGeometry>
        </mxCell>
        <mxCell id="xD2Bt0CjhpOkZUO3H_ut-42" value="&lt;font style=&quot;font-size: 15px;&quot;&gt;3&lt;/font&gt;" style="edgeLabel;html=1;align=center;verticalAlign=middle;resizable=0;points=[];" vertex="1" connectable="0" parent="xD2Bt0CjhpOkZUO3H_ut-41">
          <mxGeometry x="-0.1333" y="-3" relative="1" as="geometry">
            <mxPoint as="offset" />
          </mxGeometry>
        </mxCell>
        <mxCell id="xD2Bt0CjhpOkZUO3H_ut-43" value="" style="endArrow=classic;html=1;rounded=0;" edge="1" parent="1" source="xD2Bt0CjhpOkZUO3H_ut-32" target="xD2Bt0CjhpOkZUO3H_ut-35">
          <mxGeometry width="50" height="50" relative="1" as="geometry">
            <mxPoint x="464" y="-388" as="sourcePoint" />
            <mxPoint x="296" y="-253" as="targetPoint" />
          </mxGeometry>
        </mxCell>
        <mxCell id="xD2Bt0CjhpOkZUO3H_ut-44" value="&lt;font style=&quot;font-size: 15px;&quot;&gt;1&lt;/font&gt;" style="edgeLabel;html=1;align=center;verticalAlign=middle;resizable=0;points=[];" vertex="1" connectable="0" parent="xD2Bt0CjhpOkZUO3H_ut-43">
          <mxGeometry x="-0.1333" y="-3" relative="1" as="geometry">
            <mxPoint as="offset" />
          </mxGeometry>
        </mxCell>
        <mxCell id="xD2Bt0CjhpOkZUO3H_ut-45" value="" style="endArrow=classic;html=1;rounded=0;" edge="1" parent="1" source="xD2Bt0CjhpOkZUO3H_ut-34" target="xD2Bt0CjhpOkZUO3H_ut-36">
          <mxGeometry width="50" height="50" relative="1" as="geometry">
            <mxPoint x="280" y="-380" as="sourcePoint" />
            <mxPoint x="280" y="-260" as="targetPoint" />
          </mxGeometry>
        </mxCell>
        <mxCell id="xD2Bt0CjhpOkZUO3H_ut-46" value="&lt;font style=&quot;font-size: 15px;&quot;&gt;1&lt;/font&gt;" style="edgeLabel;html=1;align=center;verticalAlign=middle;resizable=0;points=[];" vertex="1" connectable="0" parent="xD2Bt0CjhpOkZUO3H_ut-45">
          <mxGeometry x="-0.1333" y="-3" relative="1" as="geometry">
            <mxPoint as="offset" />
          </mxGeometry>
        </mxCell>
        <mxCell id="xD2Bt0CjhpOkZUO3H_ut-47" value="" style="endArrow=classic;html=1;rounded=0;" edge="1" parent="1" source="xD2Bt0CjhpOkZUO3H_ut-35" target="xD2Bt0CjhpOkZUO3H_ut-36">
          <mxGeometry width="50" height="50" relative="1" as="geometry">
            <mxPoint x="292" y="-224" as="sourcePoint" />
            <mxPoint x="373" y="-116" as="targetPoint" />
          </mxGeometry>
        </mxCell>
        <mxCell id="xD2Bt0CjhpOkZUO3H_ut-48" value="&lt;font style=&quot;font-size: 15px;&quot;&gt;-1&lt;/font&gt;" style="edgeLabel;html=1;align=center;verticalAlign=middle;resizable=0;points=[];" vertex="1" connectable="0" parent="xD2Bt0CjhpOkZUO3H_ut-47">
          <mxGeometry x="-0.1333" y="-3" relative="1" as="geometry">
            <mxPoint as="offset" />
          </mxGeometry>
        </mxCell>
        <mxCell id="xD2Bt0CjhpOkZUO3H_ut-49" value="[4,6]" style="text;html=1;align=center;verticalAlign=middle;resizable=0;points=[];autosize=1;strokeColor=none;fillColor=none;" vertex="1" parent="1">
          <mxGeometry x="240" y="-460" width="50" height="30" as="geometry" />
        </mxCell>
        <mxCell id="xD2Bt0CjhpOkZUO3H_ut-50" value="[1,5]" style="text;html=1;align=center;verticalAlign=middle;resizable=0;points=[];autosize=1;strokeColor=none;fillColor=none;" vertex="1" parent="1">
          <mxGeometry x="445" y="-460" width="50" height="30" as="geometry" />
        </mxCell>
        <mxCell id="xD2Bt0CjhpOkZUO3H_ut-56" value="Lets assume that the ouput for this DNN is f&amp;lt;20" style="text;html=1;align=center;verticalAlign=middle;resizable=0;points=[];autosize=1;strokeColor=none;fillColor=none;" vertex="1" parent="1">
          <mxGeometry x="190" y="-80" width="280" height="30" as="geometry" />
        </mxCell>
        <mxCell id="xD2Bt0CjhpOkZUO3H_ut-57" value="x" style="ellipse;whiteSpace=wrap;html=1;aspect=fixed;" vertex="1" parent="1">
          <mxGeometry x="245" y="-1020" width="40" height="40" as="geometry" />
        </mxCell>
        <mxCell id="xD2Bt0CjhpOkZUO3H_ut-58" value="y" style="ellipse;whiteSpace=wrap;html=1;aspect=fixed;" vertex="1" parent="1">
          <mxGeometry x="445" y="-1020" width="40" height="40" as="geometry" />
        </mxCell>
        <mxCell id="xD2Bt0CjhpOkZUO3H_ut-59" value="A" style="ellipse;whiteSpace=wrap;html=1;aspect=fixed;" vertex="1" parent="1">
          <mxGeometry x="245" y="-860" width="40" height="40" as="geometry" />
        </mxCell>
        <mxCell id="xD2Bt0CjhpOkZUO3H_ut-60" value="B" style="ellipse;whiteSpace=wrap;html=1;aspect=fixed;" vertex="1" parent="1">
          <mxGeometry x="445" y="-860" width="40" height="40" as="geometry" />
        </mxCell>
        <mxCell id="xD2Bt0CjhpOkZUO3H_ut-61" value="f" style="ellipse;whiteSpace=wrap;html=1;aspect=fixed;" vertex="1" parent="1">
          <mxGeometry x="350" y="-720" width="40" height="40" as="geometry" />
        </mxCell>
        <mxCell id="xD2Bt0CjhpOkZUO3H_ut-62" value="" style="endArrow=classic;html=1;rounded=0;entryX=0.5;entryY=0;entryDx=0;entryDy=0;exitX=0.5;exitY=1;exitDx=0;exitDy=0;" edge="1" parent="1" source="xD2Bt0CjhpOkZUO3H_ut-57" target="xD2Bt0CjhpOkZUO3H_ut-59">
          <mxGeometry width="50" height="50" relative="1" as="geometry">
            <mxPoint x="475" y="-900" as="sourcePoint" />
            <mxPoint x="525" y="-950" as="targetPoint" />
          </mxGeometry>
        </mxCell>
        <mxCell id="xD2Bt0CjhpOkZUO3H_ut-63" value="&lt;font style=&quot;font-size: 15px;&quot;&gt;2&lt;/font&gt;" style="edgeLabel;html=1;align=center;verticalAlign=middle;resizable=0;points=[];" vertex="1" connectable="0" parent="xD2Bt0CjhpOkZUO3H_ut-62">
          <mxGeometry x="-0.1333" y="-3" relative="1" as="geometry">
            <mxPoint as="offset" />
          </mxGeometry>
        </mxCell>
        <mxCell id="xD2Bt0CjhpOkZUO3H_ut-64" value="" style="endArrow=classic;html=1;rounded=0;entryX=0.5;entryY=0;entryDx=0;entryDy=0;exitX=0.5;exitY=1;exitDx=0;exitDy=0;" edge="1" parent="1">
          <mxGeometry width="50" height="50" relative="1" as="geometry">
            <mxPoint x="464.68000000000006" y="-980" as="sourcePoint" />
            <mxPoint x="464.68000000000006" y="-860" as="targetPoint" />
          </mxGeometry>
        </mxCell>
        <mxCell id="xD2Bt0CjhpOkZUO3H_ut-65" value="&lt;font style=&quot;font-size: 15px;&quot;&gt;1&lt;/font&gt;" style="edgeLabel;html=1;align=center;verticalAlign=middle;resizable=0;points=[];" vertex="1" connectable="0" parent="xD2Bt0CjhpOkZUO3H_ut-64">
          <mxGeometry x="-0.1333" y="-3" relative="1" as="geometry">
            <mxPoint as="offset" />
          </mxGeometry>
        </mxCell>
        <mxCell id="xD2Bt0CjhpOkZUO3H_ut-66" value="" style="endArrow=classic;html=1;rounded=0;" edge="1" parent="1" source="xD2Bt0CjhpOkZUO3H_ut-58" target="xD2Bt0CjhpOkZUO3H_ut-59">
          <mxGeometry width="50" height="50" relative="1" as="geometry">
            <mxPoint x="285" y="-960" as="sourcePoint" />
            <mxPoint x="285" y="-840" as="targetPoint" />
          </mxGeometry>
        </mxCell>
        <mxCell id="xD2Bt0CjhpOkZUO3H_ut-67" value="&lt;font style=&quot;font-size: 15px;&quot;&gt;3&lt;/font&gt;" style="edgeLabel;html=1;align=center;verticalAlign=middle;resizable=0;points=[];" vertex="1" connectable="0" parent="xD2Bt0CjhpOkZUO3H_ut-66">
          <mxGeometry x="-0.1333" y="-3" relative="1" as="geometry">
            <mxPoint as="offset" />
          </mxGeometry>
        </mxCell>
        <mxCell id="xD2Bt0CjhpOkZUO3H_ut-68" value="" style="endArrow=classic;html=1;rounded=0;" edge="1" parent="1" source="xD2Bt0CjhpOkZUO3H_ut-57" target="xD2Bt0CjhpOkZUO3H_ut-60">
          <mxGeometry width="50" height="50" relative="1" as="geometry">
            <mxPoint x="459" y="-978" as="sourcePoint" />
            <mxPoint x="291" y="-843" as="targetPoint" />
          </mxGeometry>
        </mxCell>
        <mxCell id="xD2Bt0CjhpOkZUO3H_ut-69" value="&lt;font style=&quot;font-size: 15px;&quot;&gt;1&lt;/font&gt;" style="edgeLabel;html=1;align=center;verticalAlign=middle;resizable=0;points=[];" vertex="1" connectable="0" parent="xD2Bt0CjhpOkZUO3H_ut-68">
          <mxGeometry x="-0.1333" y="-3" relative="1" as="geometry">
            <mxPoint as="offset" />
          </mxGeometry>
        </mxCell>
        <mxCell id="xD2Bt0CjhpOkZUO3H_ut-70" value="" style="endArrow=classic;html=1;rounded=0;" edge="1" parent="1" source="xD2Bt0CjhpOkZUO3H_ut-59" target="xD2Bt0CjhpOkZUO3H_ut-61">
          <mxGeometry width="50" height="50" relative="1" as="geometry">
            <mxPoint x="275" y="-970" as="sourcePoint" />
            <mxPoint x="275" y="-850" as="targetPoint" />
          </mxGeometry>
        </mxCell>
        <mxCell id="xD2Bt0CjhpOkZUO3H_ut-71" value="&lt;font style=&quot;font-size: 15px;&quot;&gt;1&lt;/font&gt;" style="edgeLabel;html=1;align=center;verticalAlign=middle;resizable=0;points=[];" vertex="1" connectable="0" parent="xD2Bt0CjhpOkZUO3H_ut-70">
          <mxGeometry x="-0.1333" y="-3" relative="1" as="geometry">
            <mxPoint as="offset" />
          </mxGeometry>
        </mxCell>
        <mxCell id="xD2Bt0CjhpOkZUO3H_ut-72" value="" style="endArrow=classic;html=1;rounded=0;" edge="1" parent="1" source="xD2Bt0CjhpOkZUO3H_ut-60" target="xD2Bt0CjhpOkZUO3H_ut-61">
          <mxGeometry width="50" height="50" relative="1" as="geometry">
            <mxPoint x="287" y="-814" as="sourcePoint" />
            <mxPoint x="368" y="-706" as="targetPoint" />
          </mxGeometry>
        </mxCell>
        <mxCell id="xD2Bt0CjhpOkZUO3H_ut-73" value="&lt;font style=&quot;font-size: 15px;&quot;&gt;-1&lt;/font&gt;" style="edgeLabel;html=1;align=center;verticalAlign=middle;resizable=0;points=[];" vertex="1" connectable="0" parent="xD2Bt0CjhpOkZUO3H_ut-72">
          <mxGeometry x="-0.1333" y="-3" relative="1" as="geometry">
            <mxPoint as="offset" />
          </mxGeometry>
        </mxCell>
        <mxCell id="xD2Bt0CjhpOkZUO3H_ut-74" value="[4,6]" style="text;html=1;align=center;verticalAlign=middle;resizable=0;points=[];autosize=1;strokeColor=none;fillColor=none;" vertex="1" parent="1">
          <mxGeometry x="235" y="-1050" width="50" height="30" as="geometry" />
        </mxCell>
        <mxCell id="xD2Bt0CjhpOkZUO3H_ut-75" value="[1,5]" style="text;html=1;align=center;verticalAlign=middle;resizable=0;points=[];autosize=1;strokeColor=none;fillColor=none;" vertex="1" parent="1">
          <mxGeometry x="440" y="-1050" width="50" height="30" as="geometry" />
        </mxCell>
        <mxCell id="xD2Bt0CjhpOkZUO3H_ut-76" value="[11,27]" style="text;html=1;align=center;verticalAlign=middle;resizable=0;points=[];autosize=1;strokeColor=none;fillColor=none;" vertex="1" parent="1">
          <mxGeometry x="190" y="-880" width="60" height="30" as="geometry" />
        </mxCell>
        <mxCell id="xD2Bt0CjhpOkZUO3H_ut-77" value="[11,27]" style="text;html=1;align=center;verticalAlign=middle;resizable=0;points=[];autosize=1;strokeColor=none;fillColor=none;" vertex="1" parent="1">
          <mxGeometry x="190" y="-840" width="60" height="30" as="geometry" />
        </mxCell>
        <mxCell id="xD2Bt0CjhpOkZUO3H_ut-78" value="[5,11]" style="text;html=1;align=center;verticalAlign=middle;resizable=0;points=[];autosize=1;strokeColor=none;fillColor=none;" vertex="1" parent="1">
          <mxGeometry x="495" y="-880" width="50" height="30" as="geometry" />
        </mxCell>
        <mxCell id="xD2Bt0CjhpOkZUO3H_ut-79" value="[5,11]" style="text;html=1;align=center;verticalAlign=middle;resizable=0;points=[];autosize=1;strokeColor=none;fillColor=none;" vertex="1" parent="1">
          <mxGeometry x="495" y="-850" width="50" height="30" as="geometry" />
        </mxCell>
        <mxCell id="xD2Bt0CjhpOkZUO3H_ut-80" value="[0,22]" style="text;html=1;align=center;verticalAlign=middle;resizable=0;points=[];autosize=1;strokeColor=none;fillColor=none;" vertex="1" parent="1">
          <mxGeometry x="345" y="-670" width="50" height="30" as="geometry" />
        </mxCell>
        <mxCell id="xD2Bt0CjhpOkZUO3H_ut-82" value="lb = lower bound&lt;br&gt;ub = upper bound" style="text;html=1;align=left;verticalAlign=middle;resizable=0;points=[];autosize=1;strokeColor=none;fillColor=none;" vertex="1" parent="1">
          <mxGeometry x="650" y="25" width="120" height="40" as="geometry" />
        </mxCell>
        <mxCell id="xD2Bt0CjhpOkZUO3H_ut-83" value="For Node A&lt;br&gt;lb = ReLu(x&lt;span style=&quot;font-size: 10px;&quot;&gt;&lt;sub&gt;lb&lt;/sub&gt;*w&lt;sub&gt;xA&lt;/sub&gt;&amp;nbsp;+&amp;nbsp;&lt;/span&gt;y&lt;sub&gt;lb&lt;/sub&gt;*w&lt;sub&gt;yA &lt;/sub&gt;)= 4*2+1*3 = 8+3 = 11&lt;br&gt;ub = ReLu(x&lt;sub&gt;ub&lt;/sub&gt;*w&lt;sub&gt;xA&lt;/sub&gt;&amp;nbsp;+&amp;nbsp;y&lt;sub&gt;ub&lt;/sub&gt;*w&lt;sub&gt;yA &lt;/sub&gt;) = 6*2+5*3 = 12+15 = 27&lt;br&gt;&amp;nbsp;" style="text;html=1;align=left;verticalAlign=middle;resizable=0;points=[];autosize=1;strokeColor=none;fillColor=none;" vertex="1" parent="1">
          <mxGeometry x="430" y="140" width="320" height="80" as="geometry" />
        </mxCell>
        <mxCell id="xD2Bt0CjhpOkZUO3H_ut-84" value="For Node B&lt;br&gt;lb = ReLu(x&lt;span style=&quot;font-size: 10px;&quot;&gt;&lt;sub&gt;lb&lt;/sub&gt;*w&lt;sub&gt;xB&lt;/sub&gt;&amp;nbsp;+&amp;nbsp;&lt;/span&gt;y&lt;sub style=&quot;&quot;&gt;lb&lt;/sub&gt;*w&lt;sub&gt;y&lt;/sub&gt;&lt;sub style=&quot;&quot;&gt;B &lt;/sub&gt;= 4*1+1*1 = 4+1 = 5&lt;br&gt;ub =ReLu(x&lt;sub style=&quot;&quot;&gt;ub&lt;/sub&gt;*w&lt;sub style=&quot;&quot;&gt;xB&lt;/sub&gt;&amp;nbsp;+&amp;nbsp;y&lt;sub style=&quot;&quot;&gt;ub&lt;/sub&gt;*w&lt;sub style=&quot;&quot;&gt;yB&amp;nbsp;&lt;/sub&gt;) = 6*1+5*1 = 6+5 = 11&lt;br&gt;&amp;nbsp;" style="text;html=1;align=left;verticalAlign=middle;resizable=1;points=[];autosize=1;strokeColor=none;fillColor=none;movable=1;rotatable=1;deletable=1;editable=1;locked=0;connectable=1;" vertex="1" parent="1">
          <mxGeometry x="430" y="240" width="300" height="80" as="geometry" />
        </mxCell>
        <mxCell id="xD2Bt0CjhpOkZUO3H_ut-85" value="Hidden layer A and B Nodes" style="text;html=1;align=left;verticalAlign=middle;resizable=0;points=[];autosize=1;strokeColor=none;fillColor=none;" vertex="1" parent="1">
          <mxGeometry x="85" y="30" width="170" height="30" as="geometry" />
        </mxCell>
        <mxCell id="xD2Bt0CjhpOkZUO3H_ut-86" value="x" style="ellipse;whiteSpace=wrap;html=1;aspect=fixed;" vertex="1" parent="1">
          <mxGeometry x="85" y="520" width="40" height="40" as="geometry" />
        </mxCell>
        <mxCell id="xD2Bt0CjhpOkZUO3H_ut-87" value="y" style="ellipse;whiteSpace=wrap;html=1;aspect=fixed;" vertex="1" parent="1">
          <mxGeometry x="285" y="520" width="40" height="40" as="geometry" />
        </mxCell>
        <mxCell id="xD2Bt0CjhpOkZUO3H_ut-88" value="A" style="ellipse;whiteSpace=wrap;html=1;aspect=fixed;" vertex="1" parent="1">
          <mxGeometry x="85" y="680" width="40" height="40" as="geometry" />
        </mxCell>
        <mxCell id="xD2Bt0CjhpOkZUO3H_ut-89" value="B" style="ellipse;whiteSpace=wrap;html=1;aspect=fixed;" vertex="1" parent="1">
          <mxGeometry x="285" y="680" width="40" height="40" as="geometry" />
        </mxCell>
        <mxCell id="xD2Bt0CjhpOkZUO3H_ut-90" value="f" style="ellipse;whiteSpace=wrap;html=1;aspect=fixed;" vertex="1" parent="1">
          <mxGeometry x="190" y="820" width="40" height="40" as="geometry" />
        </mxCell>
        <mxCell id="xD2Bt0CjhpOkZUO3H_ut-91" value="" style="endArrow=classic;html=1;rounded=0;entryX=0.5;entryY=0;entryDx=0;entryDy=0;exitX=0.5;exitY=1;exitDx=0;exitDy=0;" edge="1" parent="1" source="xD2Bt0CjhpOkZUO3H_ut-86" target="xD2Bt0CjhpOkZUO3H_ut-88">
          <mxGeometry width="50" height="50" relative="1" as="geometry">
            <mxPoint x="315" y="640" as="sourcePoint" />
            <mxPoint x="365" y="590" as="targetPoint" />
          </mxGeometry>
        </mxCell>
        <mxCell id="xD2Bt0CjhpOkZUO3H_ut-92" value="&lt;font style=&quot;font-size: 15px;&quot;&gt;2&lt;/font&gt;" style="edgeLabel;html=1;align=center;verticalAlign=middle;resizable=0;points=[];" vertex="1" connectable="0" parent="xD2Bt0CjhpOkZUO3H_ut-91">
          <mxGeometry x="-0.1333" y="-3" relative="1" as="geometry">
            <mxPoint as="offset" />
          </mxGeometry>
        </mxCell>
        <mxCell id="xD2Bt0CjhpOkZUO3H_ut-93" value="" style="endArrow=classic;html=1;rounded=0;entryX=0.5;entryY=0;entryDx=0;entryDy=0;exitX=0.5;exitY=1;exitDx=0;exitDy=0;" edge="1" parent="1">
          <mxGeometry width="50" height="50" relative="1" as="geometry">
            <mxPoint x="304.68000000000006" y="560" as="sourcePoint" />
            <mxPoint x="304.68000000000006" y="680" as="targetPoint" />
          </mxGeometry>
        </mxCell>
        <mxCell id="xD2Bt0CjhpOkZUO3H_ut-94" value="&lt;font style=&quot;font-size: 15px;&quot;&gt;1&lt;/font&gt;" style="edgeLabel;html=1;align=center;verticalAlign=middle;resizable=0;points=[];" vertex="1" connectable="0" parent="xD2Bt0CjhpOkZUO3H_ut-93">
          <mxGeometry x="-0.1333" y="-3" relative="1" as="geometry">
            <mxPoint as="offset" />
          </mxGeometry>
        </mxCell>
        <mxCell id="xD2Bt0CjhpOkZUO3H_ut-95" value="" style="endArrow=classic;html=1;rounded=0;" edge="1" parent="1" source="xD2Bt0CjhpOkZUO3H_ut-87" target="xD2Bt0CjhpOkZUO3H_ut-88">
          <mxGeometry width="50" height="50" relative="1" as="geometry">
            <mxPoint x="125" y="580" as="sourcePoint" />
            <mxPoint x="125" y="700" as="targetPoint" />
          </mxGeometry>
        </mxCell>
        <mxCell id="xD2Bt0CjhpOkZUO3H_ut-96" value="&lt;font style=&quot;font-size: 15px;&quot;&gt;3&lt;/font&gt;" style="edgeLabel;html=1;align=center;verticalAlign=middle;resizable=0;points=[];" vertex="1" connectable="0" parent="xD2Bt0CjhpOkZUO3H_ut-95">
          <mxGeometry x="-0.1333" y="-3" relative="1" as="geometry">
            <mxPoint as="offset" />
          </mxGeometry>
        </mxCell>
        <mxCell id="xD2Bt0CjhpOkZUO3H_ut-97" value="" style="endArrow=classic;html=1;rounded=0;" edge="1" parent="1" source="xD2Bt0CjhpOkZUO3H_ut-86" target="xD2Bt0CjhpOkZUO3H_ut-89">
          <mxGeometry width="50" height="50" relative="1" as="geometry">
            <mxPoint x="299" y="562" as="sourcePoint" />
            <mxPoint x="131" y="697" as="targetPoint" />
          </mxGeometry>
        </mxCell>
        <mxCell id="xD2Bt0CjhpOkZUO3H_ut-98" value="&lt;font style=&quot;font-size: 15px;&quot;&gt;1&lt;/font&gt;" style="edgeLabel;html=1;align=center;verticalAlign=middle;resizable=0;points=[];" vertex="1" connectable="0" parent="xD2Bt0CjhpOkZUO3H_ut-97">
          <mxGeometry x="-0.1333" y="-3" relative="1" as="geometry">
            <mxPoint as="offset" />
          </mxGeometry>
        </mxCell>
        <mxCell id="xD2Bt0CjhpOkZUO3H_ut-99" value="" style="endArrow=classic;html=1;rounded=0;" edge="1" parent="1" source="xD2Bt0CjhpOkZUO3H_ut-88" target="xD2Bt0CjhpOkZUO3H_ut-90">
          <mxGeometry width="50" height="50" relative="1" as="geometry">
            <mxPoint x="115" y="570" as="sourcePoint" />
            <mxPoint x="115" y="690" as="targetPoint" />
          </mxGeometry>
        </mxCell>
        <mxCell id="xD2Bt0CjhpOkZUO3H_ut-100" value="&lt;font style=&quot;font-size: 15px;&quot;&gt;1&lt;/font&gt;" style="edgeLabel;html=1;align=center;verticalAlign=middle;resizable=0;points=[];" vertex="1" connectable="0" parent="xD2Bt0CjhpOkZUO3H_ut-99">
          <mxGeometry x="-0.1333" y="-3" relative="1" as="geometry">
            <mxPoint as="offset" />
          </mxGeometry>
        </mxCell>
        <mxCell id="xD2Bt0CjhpOkZUO3H_ut-101" value="" style="endArrow=classic;html=1;rounded=0;" edge="1" parent="1" source="xD2Bt0CjhpOkZUO3H_ut-89" target="xD2Bt0CjhpOkZUO3H_ut-90">
          <mxGeometry width="50" height="50" relative="1" as="geometry">
            <mxPoint x="127" y="726" as="sourcePoint" />
            <mxPoint x="208" y="834" as="targetPoint" />
          </mxGeometry>
        </mxCell>
        <mxCell id="xD2Bt0CjhpOkZUO3H_ut-102" value="&lt;font style=&quot;font-size: 15px;&quot;&gt;-1&lt;/font&gt;" style="edgeLabel;html=1;align=center;verticalAlign=middle;resizable=0;points=[];" vertex="1" connectable="0" parent="xD2Bt0CjhpOkZUO3H_ut-101">
          <mxGeometry x="-0.1333" y="-3" relative="1" as="geometry">
            <mxPoint as="offset" />
          </mxGeometry>
        </mxCell>
        <mxCell id="xD2Bt0CjhpOkZUO3H_ut-103" value="[4,6]" style="text;html=1;align=center;verticalAlign=middle;resizable=0;points=[];autosize=1;strokeColor=none;fillColor=none;" vertex="1" parent="1">
          <mxGeometry x="75" y="490" width="50" height="30" as="geometry" />
        </mxCell>
        <mxCell id="xD2Bt0CjhpOkZUO3H_ut-104" value="[1,5]" style="text;html=1;align=center;verticalAlign=middle;resizable=0;points=[];autosize=1;strokeColor=none;fillColor=none;" vertex="1" parent="1">
          <mxGeometry x="280" y="490" width="50" height="30" as="geometry" />
        </mxCell>
        <mxCell id="xD2Bt0CjhpOkZUO3H_ut-105" value="[11,27]" style="text;html=1;align=center;verticalAlign=middle;resizable=0;points=[];autosize=1;strokeColor=none;fillColor=none;" vertex="1" parent="1">
          <mxGeometry x="30" y="680" width="60" height="30" as="geometry" />
        </mxCell>
        <mxCell id="xD2Bt0CjhpOkZUO3H_ut-106" value="[5,11]" style="text;html=1;align=center;verticalAlign=middle;resizable=0;points=[];autosize=1;strokeColor=none;fillColor=none;" vertex="1" parent="1">
          <mxGeometry x="325" y="680" width="50" height="30" as="geometry" />
        </mxCell>
        <mxCell id="xD2Bt0CjhpOkZUO3H_ut-107" value="For Node f&lt;br&gt;lb = A&lt;span style=&quot;font-size: 10px;&quot;&gt;&lt;sub&gt;lb&lt;/sub&gt;*w&lt;sub&gt;Af&lt;/sub&gt;&amp;nbsp;+&amp;nbsp;&lt;/span&gt;B&lt;sub style=&quot;&quot;&gt;ub&lt;/sub&gt;*w&lt;sub&gt;Bf&lt;/sub&gt;&lt;sub style=&quot;&quot;&gt;&amp;nbsp;&lt;/sub&gt;= 11*1+11*-1 = 11-11 = 0&lt;br&gt;ub = x&lt;sub style=&quot;&quot;&gt;ub&lt;/sub&gt;*w&lt;sub&gt;Af&lt;/sub&gt;&amp;nbsp;+&amp;nbsp;y&lt;sub style=&quot;&quot;&gt;ub&lt;/sub&gt;*&amp;nbsp;w&lt;sub&gt;Bf&lt;/sub&gt;&lt;sub style=&quot;&quot;&gt;&amp;nbsp;&lt;/sub&gt;= 27*1+5*-1 = 27-5 = 22&lt;br&gt;&amp;nbsp;" style="text;html=1;align=left;verticalAlign=middle;resizable=0;points=[];autosize=1;strokeColor=none;fillColor=none;" vertex="1" parent="1">
          <mxGeometry x="430" y="670" width="280" height="80" as="geometry" />
        </mxCell>
        <mxCell id="xD2Bt0CjhpOkZUO3H_ut-108" value="[0,22]" style="text;html=1;align=center;verticalAlign=middle;resizable=0;points=[];autosize=1;strokeColor=none;fillColor=none;" vertex="1" parent="1">
          <mxGeometry x="185" y="858" width="50" height="30" as="geometry" />
        </mxCell>
        <mxCell id="xD2Bt0CjhpOkZUO3H_ut-109" value="" style="edgeStyle=none;orthogonalLoop=1;jettySize=auto;html=1;endArrow=classic;startArrow=classic;endSize=8;startSize=8;rounded=0;" edge="1" parent="1">
          <mxGeometry width="100" relative="1" as="geometry">
            <mxPoint x="10" y="-20" as="sourcePoint" />
            <mxPoint x="830" y="-20" as="targetPoint" />
            <Array as="points" />
          </mxGeometry>
        </mxCell>
        <mxCell id="xD2Bt0CjhpOkZUO3H_ut-110" value="" style="edgeStyle=none;orthogonalLoop=1;jettySize=auto;html=1;endArrow=classic;startArrow=classic;endSize=8;startSize=8;rounded=0;" edge="1" parent="1">
          <mxGeometry width="100" relative="1" as="geometry">
            <mxPoint x="10" y="1030" as="sourcePoint" />
            <mxPoint x="830" y="1030" as="targetPoint" />
            <Array as="points" />
          </mxGeometry>
        </mxCell>
        <mxCell id="xD2Bt0CjhpOkZUO3H_ut-111" value="Symbolic Interval Analysis" style="text;html=1;align=left;verticalAlign=middle;resizable=0;points=[];autosize=1;strokeColor=none;fillColor=none;" vertex="1" parent="1">
          <mxGeometry x="70" y="1120" width="160" height="30" as="geometry" />
        </mxCell>
        <mxCell id="xD2Bt0CjhpOkZUO3H_ut-112" value="x" style="ellipse;whiteSpace=wrap;html=1;aspect=fixed;" vertex="1" parent="1">
          <mxGeometry x="125" y="1190" width="40" height="40" as="geometry" />
        </mxCell>
        <mxCell id="xD2Bt0CjhpOkZUO3H_ut-113" value="y" style="ellipse;whiteSpace=wrap;html=1;aspect=fixed;" vertex="1" parent="1">
          <mxGeometry x="325" y="1190" width="40" height="40" as="geometry" />
        </mxCell>
        <mxCell id="xD2Bt0CjhpOkZUO3H_ut-114" value="A" style="ellipse;whiteSpace=wrap;html=1;aspect=fixed;" vertex="1" parent="1">
          <mxGeometry x="125" y="1350" width="40" height="40" as="geometry" />
        </mxCell>
        <mxCell id="xD2Bt0CjhpOkZUO3H_ut-115" value="B" style="ellipse;whiteSpace=wrap;html=1;aspect=fixed;" vertex="1" parent="1">
          <mxGeometry x="325" y="1350" width="40" height="40" as="geometry" />
        </mxCell>
        <mxCell id="xD2Bt0CjhpOkZUO3H_ut-116" value="f" style="ellipse;whiteSpace=wrap;html=1;aspect=fixed;" vertex="1" parent="1">
          <mxGeometry x="230" y="1490" width="40" height="40" as="geometry" />
        </mxCell>
        <mxCell id="xD2Bt0CjhpOkZUO3H_ut-117" value="" style="endArrow=classic;html=1;rounded=0;entryX=0.5;entryY=0;entryDx=0;entryDy=0;exitX=0.5;exitY=1;exitDx=0;exitDy=0;" edge="1" parent="1" source="xD2Bt0CjhpOkZUO3H_ut-112" target="xD2Bt0CjhpOkZUO3H_ut-114">
          <mxGeometry width="50" height="50" relative="1" as="geometry">
            <mxPoint x="355" y="1310" as="sourcePoint" />
            <mxPoint x="405" y="1260" as="targetPoint" />
          </mxGeometry>
        </mxCell>
        <mxCell id="xD2Bt0CjhpOkZUO3H_ut-118" value="&lt;font style=&quot;font-size: 15px;&quot;&gt;2&lt;/font&gt;" style="edgeLabel;html=1;align=center;verticalAlign=middle;resizable=0;points=[];" vertex="1" connectable="0" parent="xD2Bt0CjhpOkZUO3H_ut-117">
          <mxGeometry x="-0.1333" y="-3" relative="1" as="geometry">
            <mxPoint as="offset" />
          </mxGeometry>
        </mxCell>
        <mxCell id="xD2Bt0CjhpOkZUO3H_ut-119" value="" style="endArrow=classic;html=1;rounded=0;entryX=0.5;entryY=0;entryDx=0;entryDy=0;exitX=0.5;exitY=1;exitDx=0;exitDy=0;" edge="1" parent="1">
          <mxGeometry width="50" height="50" relative="1" as="geometry">
            <mxPoint x="344.68000000000006" y="1230" as="sourcePoint" />
            <mxPoint x="344.68000000000006" y="1350" as="targetPoint" />
          </mxGeometry>
        </mxCell>
        <mxCell id="xD2Bt0CjhpOkZUO3H_ut-120" value="&lt;font style=&quot;font-size: 15px;&quot;&gt;1&lt;/font&gt;" style="edgeLabel;html=1;align=center;verticalAlign=middle;resizable=0;points=[];" vertex="1" connectable="0" parent="xD2Bt0CjhpOkZUO3H_ut-119">
          <mxGeometry x="-0.1333" y="-3" relative="1" as="geometry">
            <mxPoint as="offset" />
          </mxGeometry>
        </mxCell>
        <mxCell id="xD2Bt0CjhpOkZUO3H_ut-121" value="" style="endArrow=classic;html=1;rounded=0;" edge="1" parent="1" source="xD2Bt0CjhpOkZUO3H_ut-113" target="xD2Bt0CjhpOkZUO3H_ut-114">
          <mxGeometry width="50" height="50" relative="1" as="geometry">
            <mxPoint x="165" y="1250" as="sourcePoint" />
            <mxPoint x="165" y="1370" as="targetPoint" />
          </mxGeometry>
        </mxCell>
        <mxCell id="xD2Bt0CjhpOkZUO3H_ut-122" value="&lt;font style=&quot;font-size: 15px;&quot;&gt;3&lt;/font&gt;" style="edgeLabel;html=1;align=center;verticalAlign=middle;resizable=0;points=[];" vertex="1" connectable="0" parent="xD2Bt0CjhpOkZUO3H_ut-121">
          <mxGeometry x="-0.1333" y="-3" relative="1" as="geometry">
            <mxPoint as="offset" />
          </mxGeometry>
        </mxCell>
        <mxCell id="xD2Bt0CjhpOkZUO3H_ut-123" value="" style="endArrow=classic;html=1;rounded=0;" edge="1" parent="1" source="xD2Bt0CjhpOkZUO3H_ut-112" target="xD2Bt0CjhpOkZUO3H_ut-115">
          <mxGeometry width="50" height="50" relative="1" as="geometry">
            <mxPoint x="339" y="1232" as="sourcePoint" />
            <mxPoint x="171" y="1367" as="targetPoint" />
          </mxGeometry>
        </mxCell>
        <mxCell id="xD2Bt0CjhpOkZUO3H_ut-124" value="&lt;font style=&quot;font-size: 15px;&quot;&gt;1&lt;/font&gt;" style="edgeLabel;html=1;align=center;verticalAlign=middle;resizable=0;points=[];" vertex="1" connectable="0" parent="xD2Bt0CjhpOkZUO3H_ut-123">
          <mxGeometry x="-0.1333" y="-3" relative="1" as="geometry">
            <mxPoint as="offset" />
          </mxGeometry>
        </mxCell>
        <mxCell id="xD2Bt0CjhpOkZUO3H_ut-125" value="" style="endArrow=classic;html=1;rounded=0;" edge="1" parent="1" source="xD2Bt0CjhpOkZUO3H_ut-114" target="xD2Bt0CjhpOkZUO3H_ut-116">
          <mxGeometry width="50" height="50" relative="1" as="geometry">
            <mxPoint x="155" y="1240" as="sourcePoint" />
            <mxPoint x="155" y="1360" as="targetPoint" />
          </mxGeometry>
        </mxCell>
        <mxCell id="xD2Bt0CjhpOkZUO3H_ut-126" value="&lt;font style=&quot;font-size: 15px;&quot;&gt;1&lt;/font&gt;" style="edgeLabel;html=1;align=center;verticalAlign=middle;resizable=0;points=[];" vertex="1" connectable="0" parent="xD2Bt0CjhpOkZUO3H_ut-125">
          <mxGeometry x="-0.1333" y="-3" relative="1" as="geometry">
            <mxPoint as="offset" />
          </mxGeometry>
        </mxCell>
        <mxCell id="xD2Bt0CjhpOkZUO3H_ut-127" value="" style="endArrow=classic;html=1;rounded=0;" edge="1" parent="1" source="xD2Bt0CjhpOkZUO3H_ut-115" target="xD2Bt0CjhpOkZUO3H_ut-116">
          <mxGeometry width="50" height="50" relative="1" as="geometry">
            <mxPoint x="167" y="1396" as="sourcePoint" />
            <mxPoint x="248" y="1504" as="targetPoint" />
          </mxGeometry>
        </mxCell>
        <mxCell id="xD2Bt0CjhpOkZUO3H_ut-128" value="&lt;font style=&quot;font-size: 15px;&quot;&gt;-1&lt;/font&gt;" style="edgeLabel;html=1;align=center;verticalAlign=middle;resizable=0;points=[];" vertex="1" connectable="0" parent="xD2Bt0CjhpOkZUO3H_ut-127">
          <mxGeometry x="-0.1333" y="-3" relative="1" as="geometry">
            <mxPoint as="offset" />
          </mxGeometry>
        </mxCell>
        <mxCell id="xD2Bt0CjhpOkZUO3H_ut-129" value="[4,6]" style="text;html=1;align=center;verticalAlign=middle;resizable=0;points=[];autosize=1;strokeColor=none;fillColor=none;" vertex="1" parent="1">
          <mxGeometry x="115" y="1160" width="50" height="30" as="geometry" />
        </mxCell>
        <mxCell id="xD2Bt0CjhpOkZUO3H_ut-130" value="[1,5]" style="text;html=1;align=center;verticalAlign=middle;resizable=0;points=[];autosize=1;strokeColor=none;fillColor=none;" vertex="1" parent="1">
          <mxGeometry x="320" y="1160" width="50" height="30" as="geometry" />
        </mxCell>
        <mxCell id="xD2Bt0CjhpOkZUO3H_ut-134" value="[2x+3y,2x+3y]" style="text;html=1;align=center;verticalAlign=middle;resizable=0;points=[];autosize=1;strokeColor=none;fillColor=none;" vertex="1" parent="1">
          <mxGeometry x="15" y="1355" width="100" height="30" as="geometry" />
        </mxCell>
        <mxCell id="xD2Bt0CjhpOkZUO3H_ut-135" value="[x+y,x+y]" style="text;html=1;align=center;verticalAlign=middle;resizable=0;points=[];autosize=1;strokeColor=none;fillColor=none;" vertex="1" parent="1">
          <mxGeometry x="380" y="1355" width="70" height="30" as="geometry" />
        </mxCell>
        <mxCell id="xD2Bt0CjhpOkZUO3H_ut-136" value="For Node A&lt;br&gt;lb = Relu(x*W&lt;sub&gt;xA&lt;/sub&gt;+y*W&lt;sub&gt;yA&lt;/sub&gt;) = x*2+y*3 = 2x+3y&lt;br&gt;ub = Relu(x*W&lt;sub&gt;xA&lt;/sub&gt;+y*W&lt;sub&gt;yA&lt;/sub&gt;) = x*2+y*3 = 2x+3y&lt;br&gt;&amp;nbsp;" style="text;html=1;align=left;verticalAlign=middle;resizable=0;points=[];autosize=1;strokeColor=none;fillColor=none;" vertex="1" parent="1">
          <mxGeometry x="485" y="1230" width="260" height="80" as="geometry" />
        </mxCell>
        <mxCell id="xD2Bt0CjhpOkZUO3H_ut-139" value="For Node B&lt;br&gt;lb = Relu(x*W&lt;sub&gt;xB&lt;/sub&gt;+y*W&lt;sub&gt;yB&lt;/sub&gt;) = x*1+y*1 = x+y&lt;br&gt;ub = Relu(x*W&lt;sub&gt;xB&lt;/sub&gt;+y*W&lt;sub&gt;yB&lt;/sub&gt;) = x*1+y*1 = x+y&lt;br&gt;&amp;nbsp;" style="text;html=1;align=left;verticalAlign=middle;resizable=0;points=[];autosize=1;strokeColor=none;fillColor=none;" vertex="1" parent="1">
          <mxGeometry x="485" y="1390" width="250" height="80" as="geometry" />
        </mxCell>
        <mxCell id="xD2Bt0CjhpOkZUO3H_ut-140" value="x" style="ellipse;whiteSpace=wrap;html=1;aspect=fixed;" vertex="1" parent="1">
          <mxGeometry x="140" y="1610" width="40" height="40" as="geometry" />
        </mxCell>
        <mxCell id="xD2Bt0CjhpOkZUO3H_ut-141" value="y" style="ellipse;whiteSpace=wrap;html=1;aspect=fixed;" vertex="1" parent="1">
          <mxGeometry x="340" y="1610" width="40" height="40" as="geometry" />
        </mxCell>
        <mxCell id="xD2Bt0CjhpOkZUO3H_ut-142" value="A" style="ellipse;whiteSpace=wrap;html=1;aspect=fixed;" vertex="1" parent="1">
          <mxGeometry x="140" y="1770" width="40" height="40" as="geometry" />
        </mxCell>
        <mxCell id="xD2Bt0CjhpOkZUO3H_ut-143" value="B" style="ellipse;whiteSpace=wrap;html=1;aspect=fixed;" vertex="1" parent="1">
          <mxGeometry x="340" y="1770" width="40" height="40" as="geometry" />
        </mxCell>
        <mxCell id="xD2Bt0CjhpOkZUO3H_ut-144" value="f" style="ellipse;whiteSpace=wrap;html=1;aspect=fixed;" vertex="1" parent="1">
          <mxGeometry x="245" y="1910" width="40" height="40" as="geometry" />
        </mxCell>
        <mxCell id="xD2Bt0CjhpOkZUO3H_ut-145" value="" style="endArrow=classic;html=1;rounded=0;entryX=0.5;entryY=0;entryDx=0;entryDy=0;exitX=0.5;exitY=1;exitDx=0;exitDy=0;" edge="1" parent="1" source="xD2Bt0CjhpOkZUO3H_ut-140" target="xD2Bt0CjhpOkZUO3H_ut-142">
          <mxGeometry width="50" height="50" relative="1" as="geometry">
            <mxPoint x="370" y="1730" as="sourcePoint" />
            <mxPoint x="420" y="1680" as="targetPoint" />
          </mxGeometry>
        </mxCell>
        <mxCell id="xD2Bt0CjhpOkZUO3H_ut-146" value="&lt;font style=&quot;font-size: 15px;&quot;&gt;2&lt;/font&gt;" style="edgeLabel;html=1;align=center;verticalAlign=middle;resizable=0;points=[];" vertex="1" connectable="0" parent="xD2Bt0CjhpOkZUO3H_ut-145">
          <mxGeometry x="-0.1333" y="-3" relative="1" as="geometry">
            <mxPoint as="offset" />
          </mxGeometry>
        </mxCell>
        <mxCell id="xD2Bt0CjhpOkZUO3H_ut-147" value="" style="endArrow=classic;html=1;rounded=0;entryX=0.5;entryY=0;entryDx=0;entryDy=0;exitX=0.5;exitY=1;exitDx=0;exitDy=0;" edge="1" parent="1">
          <mxGeometry width="50" height="50" relative="1" as="geometry">
            <mxPoint x="359.68000000000006" y="1650" as="sourcePoint" />
            <mxPoint x="359.68000000000006" y="1770" as="targetPoint" />
          </mxGeometry>
        </mxCell>
        <mxCell id="xD2Bt0CjhpOkZUO3H_ut-148" value="&lt;font style=&quot;font-size: 15px;&quot;&gt;1&lt;/font&gt;" style="edgeLabel;html=1;align=center;verticalAlign=middle;resizable=0;points=[];" vertex="1" connectable="0" parent="xD2Bt0CjhpOkZUO3H_ut-147">
          <mxGeometry x="-0.1333" y="-3" relative="1" as="geometry">
            <mxPoint as="offset" />
          </mxGeometry>
        </mxCell>
        <mxCell id="xD2Bt0CjhpOkZUO3H_ut-149" value="" style="endArrow=classic;html=1;rounded=0;" edge="1" parent="1" source="xD2Bt0CjhpOkZUO3H_ut-141" target="xD2Bt0CjhpOkZUO3H_ut-142">
          <mxGeometry width="50" height="50" relative="1" as="geometry">
            <mxPoint x="180" y="1670" as="sourcePoint" />
            <mxPoint x="180" y="1790" as="targetPoint" />
          </mxGeometry>
        </mxCell>
        <mxCell id="xD2Bt0CjhpOkZUO3H_ut-150" value="&lt;font style=&quot;font-size: 15px;&quot;&gt;3&lt;/font&gt;" style="edgeLabel;html=1;align=center;verticalAlign=middle;resizable=0;points=[];" vertex="1" connectable="0" parent="xD2Bt0CjhpOkZUO3H_ut-149">
          <mxGeometry x="-0.1333" y="-3" relative="1" as="geometry">
            <mxPoint as="offset" />
          </mxGeometry>
        </mxCell>
        <mxCell id="xD2Bt0CjhpOkZUO3H_ut-151" value="" style="endArrow=classic;html=1;rounded=0;" edge="1" parent="1" source="xD2Bt0CjhpOkZUO3H_ut-140" target="xD2Bt0CjhpOkZUO3H_ut-143">
          <mxGeometry width="50" height="50" relative="1" as="geometry">
            <mxPoint x="354" y="1652" as="sourcePoint" />
            <mxPoint x="186" y="1787" as="targetPoint" />
          </mxGeometry>
        </mxCell>
        <mxCell id="xD2Bt0CjhpOkZUO3H_ut-152" value="&lt;font style=&quot;font-size: 15px;&quot;&gt;1&lt;/font&gt;" style="edgeLabel;html=1;align=center;verticalAlign=middle;resizable=0;points=[];" vertex="1" connectable="0" parent="xD2Bt0CjhpOkZUO3H_ut-151">
          <mxGeometry x="-0.1333" y="-3" relative="1" as="geometry">
            <mxPoint as="offset" />
          </mxGeometry>
        </mxCell>
        <mxCell id="xD2Bt0CjhpOkZUO3H_ut-153" value="" style="endArrow=classic;html=1;rounded=0;" edge="1" parent="1" source="xD2Bt0CjhpOkZUO3H_ut-142" target="xD2Bt0CjhpOkZUO3H_ut-144">
          <mxGeometry width="50" height="50" relative="1" as="geometry">
            <mxPoint x="170" y="1660" as="sourcePoint" />
            <mxPoint x="170" y="1780" as="targetPoint" />
          </mxGeometry>
        </mxCell>
        <mxCell id="xD2Bt0CjhpOkZUO3H_ut-154" value="&lt;font style=&quot;font-size: 15px;&quot;&gt;1&lt;/font&gt;" style="edgeLabel;html=1;align=center;verticalAlign=middle;resizable=0;points=[];" vertex="1" connectable="0" parent="xD2Bt0CjhpOkZUO3H_ut-153">
          <mxGeometry x="-0.1333" y="-3" relative="1" as="geometry">
            <mxPoint as="offset" />
          </mxGeometry>
        </mxCell>
        <mxCell id="xD2Bt0CjhpOkZUO3H_ut-155" value="" style="endArrow=classic;html=1;rounded=0;" edge="1" parent="1" source="xD2Bt0CjhpOkZUO3H_ut-143" target="xD2Bt0CjhpOkZUO3H_ut-144">
          <mxGeometry width="50" height="50" relative="1" as="geometry">
            <mxPoint x="182" y="1816" as="sourcePoint" />
            <mxPoint x="263" y="1924" as="targetPoint" />
          </mxGeometry>
        </mxCell>
        <mxCell id="xD2Bt0CjhpOkZUO3H_ut-156" value="&lt;font style=&quot;font-size: 15px;&quot;&gt;-1&lt;/font&gt;" style="edgeLabel;html=1;align=center;verticalAlign=middle;resizable=0;points=[];" vertex="1" connectable="0" parent="xD2Bt0CjhpOkZUO3H_ut-155">
          <mxGeometry x="-0.1333" y="-3" relative="1" as="geometry">
            <mxPoint as="offset" />
          </mxGeometry>
        </mxCell>
        <mxCell id="xD2Bt0CjhpOkZUO3H_ut-157" value="[4,6]" style="text;html=1;align=center;verticalAlign=middle;resizable=0;points=[];autosize=1;strokeColor=none;fillColor=none;" vertex="1" parent="1">
          <mxGeometry x="130" y="1580" width="50" height="30" as="geometry" />
        </mxCell>
        <mxCell id="xD2Bt0CjhpOkZUO3H_ut-158" value="[1,5]" style="text;html=1;align=center;verticalAlign=middle;resizable=0;points=[];autosize=1;strokeColor=none;fillColor=none;" vertex="1" parent="1">
          <mxGeometry x="335" y="1580" width="50" height="30" as="geometry" />
        </mxCell>
        <mxCell id="xD2Bt0CjhpOkZUO3H_ut-159" value="[2x+3y,2x+3y]" style="text;html=1;align=center;verticalAlign=middle;resizable=0;points=[];autosize=1;strokeColor=none;fillColor=none;" vertex="1" parent="1">
          <mxGeometry x="30" y="1775" width="100" height="30" as="geometry" />
        </mxCell>
        <mxCell id="xD2Bt0CjhpOkZUO3H_ut-160" value="[x+y,x+y]" style="text;html=1;align=center;verticalAlign=middle;resizable=0;points=[];autosize=1;strokeColor=none;fillColor=none;" vertex="1" parent="1">
          <mxGeometry x="395" y="1775" width="70" height="30" as="geometry" />
        </mxCell>
        <mxCell id="xD2Bt0CjhpOkZUO3H_ut-162" value="For Node f&lt;br&gt;lb = Relu(A*W&lt;sub&gt;xB&lt;/sub&gt;+B*W&lt;sub&gt;yB&lt;/sub&gt;) = (2x+3y)*1+(x+y)*-1 = x+2y&lt;br&gt;ub = Relu(x*W&lt;sub&gt;xB&lt;/sub&gt;+y*W&lt;sub&gt;yB&lt;/sub&gt;) = (2x+3y)*1+(x+y)*-1&amp;nbsp;= x+2y&lt;br&gt;&amp;nbsp;" style="text;html=1;align=left;verticalAlign=middle;resizable=0;points=[];autosize=1;strokeColor=none;fillColor=none;" vertex="1" parent="1">
          <mxGeometry x="485" y="1760" width="310" height="80" as="geometry" />
        </mxCell>
        <mxCell id="xD2Bt0CjhpOkZUO3H_ut-163" value="[x+2y,x+2y]" style="text;html=1;align=center;verticalAlign=middle;resizable=0;points=[];autosize=1;strokeColor=none;fillColor=none;" vertex="1" parent="1">
          <mxGeometry x="225" y="1960" width="80" height="30" as="geometry" />
        </mxCell>
        <mxCell id="xD2Bt0CjhpOkZUO3H_ut-164" value="Apply x and y boundary values from input nodes" style="text;html=1;align=left;verticalAlign=middle;resizable=0;points=[];autosize=1;strokeColor=none;fillColor=none;" vertex="1" parent="1">
          <mxGeometry x="40" y="2018" width="280" height="30" as="geometry" />
        </mxCell>
        <mxCell id="xD2Bt0CjhpOkZUO3H_ut-165" value="lb = x+2y = 4 + 2*1 = 4+2 = 6&lt;br&gt;up = x+2y = 6 + 2*5 = 6+10 = 16" style="text;html=1;align=left;verticalAlign=middle;resizable=0;points=[];autosize=1;strokeColor=none;fillColor=none;" vertex="1" parent="1">
          <mxGeometry x="40" y="2053" width="200" height="40" as="geometry" />
        </mxCell>
        <mxCell id="xD2Bt0CjhpOkZUO3H_ut-166" value="[11,27]" style="text;html=1;align=center;verticalAlign=middle;resizable=0;points=[];autosize=1;strokeColor=none;fillColor=none;" vertex="1" parent="1">
          <mxGeometry x="60" y="1738" width="60" height="30" as="geometry" />
        </mxCell>
        <mxCell id="xD2Bt0CjhpOkZUO3H_ut-167" value="[5,11]" style="text;html=1;align=center;verticalAlign=middle;resizable=0;points=[];autosize=1;strokeColor=none;fillColor=none;" vertex="1" parent="1">
          <mxGeometry x="390" y="1738" width="50" height="30" as="geometry" />
        </mxCell>
        <mxCell id="xD2Bt0CjhpOkZUO3H_ut-168" value="[6,16]" style="text;html=1;align=center;verticalAlign=middle;resizable=0;points=[];autosize=1;strokeColor=none;fillColor=none;" vertex="1" parent="1">
          <mxGeometry x="315" y="1940" width="50" height="30" as="geometry" />
        </mxCell>
        <mxCell id="xD2Bt0CjhpOkZUO3H_ut-169" value="With Symbolic Interval Analysis, we get output interval as [6,16] which satisfies f&amp;lt;20, so this method is safe&lt;br&gt;but there is chance of over estimation in some cases" style="text;html=1;align=left;verticalAlign=middle;resizable=0;points=[];autosize=1;strokeColor=none;fillColor=none;" vertex="1" parent="1">
          <mxGeometry x="40" y="2103" width="590" height="40" as="geometry" />
        </mxCell>
        <mxCell id="xD2Bt0CjhpOkZUO3H_ut-170" value="" style="edgeStyle=none;orthogonalLoop=1;jettySize=auto;html=1;endArrow=classic;startArrow=classic;endSize=8;startSize=8;rounded=0;" edge="1" parent="1">
          <mxGeometry width="100" relative="1" as="geometry">
            <mxPoint x="10" y="2160" as="sourcePoint" />
            <mxPoint x="830" y="2160" as="targetPoint" />
            <Array as="points" />
          </mxGeometry>
        </mxCell>
        <mxCell id="xD2Bt0CjhpOkZUO3H_ut-171" value="Iterative Interval Refinement&amp;nbsp;" style="text;html=1;align=left;verticalAlign=middle;resizable=0;points=[];autosize=1;strokeColor=none;fillColor=none;" vertex="1" parent="1">
          <mxGeometry x="40" y="2178" width="180" height="30" as="geometry" />
        </mxCell>
        <mxCell id="xD2Bt0CjhpOkZUO3H_ut-172" value="x" style="ellipse;whiteSpace=wrap;html=1;aspect=fixed;" vertex="1" parent="1">
          <mxGeometry x="132.5" y="2290" width="40" height="40" as="geometry" />
        </mxCell>
        <mxCell id="xD2Bt0CjhpOkZUO3H_ut-173" value="y" style="ellipse;whiteSpace=wrap;html=1;aspect=fixed;" vertex="1" parent="1">
          <mxGeometry x="332.5" y="2290" width="40" height="40" as="geometry" />
        </mxCell>
        <mxCell id="xD2Bt0CjhpOkZUO3H_ut-174" value="A" style="ellipse;whiteSpace=wrap;html=1;aspect=fixed;" vertex="1" parent="1">
          <mxGeometry x="132.5" y="2450" width="40" height="40" as="geometry" />
        </mxCell>
        <mxCell id="xD2Bt0CjhpOkZUO3H_ut-175" value="B" style="ellipse;whiteSpace=wrap;html=1;aspect=fixed;" vertex="1" parent="1">
          <mxGeometry x="332.5" y="2450" width="40" height="40" as="geometry" />
        </mxCell>
        <mxCell id="xD2Bt0CjhpOkZUO3H_ut-176" value="f" style="ellipse;whiteSpace=wrap;html=1;aspect=fixed;" vertex="1" parent="1">
          <mxGeometry x="237.5" y="2590" width="40" height="40" as="geometry" />
        </mxCell>
        <mxCell id="xD2Bt0CjhpOkZUO3H_ut-177" value="" style="endArrow=classic;html=1;rounded=0;entryX=0.5;entryY=0;entryDx=0;entryDy=0;exitX=0.5;exitY=1;exitDx=0;exitDy=0;" edge="1" parent="1" source="xD2Bt0CjhpOkZUO3H_ut-172" target="xD2Bt0CjhpOkZUO3H_ut-174">
          <mxGeometry width="50" height="50" relative="1" as="geometry">
            <mxPoint x="362.5" y="2410" as="sourcePoint" />
            <mxPoint x="412.5" y="2360" as="targetPoint" />
          </mxGeometry>
        </mxCell>
        <mxCell id="xD2Bt0CjhpOkZUO3H_ut-178" value="&lt;font style=&quot;font-size: 15px;&quot;&gt;2&lt;/font&gt;" style="edgeLabel;html=1;align=center;verticalAlign=middle;resizable=0;points=[];" vertex="1" connectable="0" parent="xD2Bt0CjhpOkZUO3H_ut-177">
          <mxGeometry x="-0.1333" y="-3" relative="1" as="geometry">
            <mxPoint as="offset" />
          </mxGeometry>
        </mxCell>
        <mxCell id="xD2Bt0CjhpOkZUO3H_ut-179" value="" style="endArrow=classic;html=1;rounded=0;entryX=0.5;entryY=0;entryDx=0;entryDy=0;exitX=0.5;exitY=1;exitDx=0;exitDy=0;" edge="1" parent="1">
          <mxGeometry width="50" height="50" relative="1" as="geometry">
            <mxPoint x="352.18000000000006" y="2330" as="sourcePoint" />
            <mxPoint x="352.18000000000006" y="2450" as="targetPoint" />
          </mxGeometry>
        </mxCell>
        <mxCell id="xD2Bt0CjhpOkZUO3H_ut-180" value="&lt;font style=&quot;font-size: 15px;&quot;&gt;5&lt;br&gt;&lt;/font&gt;" style="edgeLabel;html=1;align=center;verticalAlign=middle;resizable=0;points=[];" vertex="1" connectable="0" parent="xD2Bt0CjhpOkZUO3H_ut-179">
          <mxGeometry x="-0.1333" y="-3" relative="1" as="geometry">
            <mxPoint as="offset" />
          </mxGeometry>
        </mxCell>
        <mxCell id="xD2Bt0CjhpOkZUO3H_ut-181" value="" style="endArrow=classic;html=1;rounded=0;" edge="1" parent="1" source="xD2Bt0CjhpOkZUO3H_ut-173" target="xD2Bt0CjhpOkZUO3H_ut-174">
          <mxGeometry width="50" height="50" relative="1" as="geometry">
            <mxPoint x="172.5" y="2350" as="sourcePoint" />
            <mxPoint x="172.5" y="2470" as="targetPoint" />
          </mxGeometry>
        </mxCell>
        <mxCell id="xD2Bt0CjhpOkZUO3H_ut-193" value="&lt;font style=&quot;font-size: 15px;&quot;&gt;3&lt;/font&gt;" style="edgeLabel;html=1;align=center;verticalAlign=middle;resizable=0;points=[];" vertex="1" connectable="0" parent="xD2Bt0CjhpOkZUO3H_ut-181">
          <mxGeometry x="-0.6102" y="1" relative="1" as="geometry">
            <mxPoint as="offset" />
          </mxGeometry>
        </mxCell>
        <mxCell id="xD2Bt0CjhpOkZUO3H_ut-183" value="" style="endArrow=classic;html=1;rounded=0;" edge="1" parent="1" source="xD2Bt0CjhpOkZUO3H_ut-172" target="xD2Bt0CjhpOkZUO3H_ut-175">
          <mxGeometry width="50" height="50" relative="1" as="geometry">
            <mxPoint x="346.5" y="2332" as="sourcePoint" />
            <mxPoint x="178.5" y="2467" as="targetPoint" />
          </mxGeometry>
        </mxCell>
        <mxCell id="xD2Bt0CjhpOkZUO3H_ut-194" value="&lt;font style=&quot;font-size: 15px;&quot;&gt;-1&lt;/font&gt;" style="edgeLabel;html=1;align=center;verticalAlign=middle;resizable=0;points=[];" vertex="1" connectable="0" parent="xD2Bt0CjhpOkZUO3H_ut-183">
          <mxGeometry x="-0.5543" y="-1" relative="1" as="geometry">
            <mxPoint as="offset" />
          </mxGeometry>
        </mxCell>
        <mxCell id="xD2Bt0CjhpOkZUO3H_ut-185" value="" style="endArrow=classic;html=1;rounded=0;" edge="1" parent="1" source="xD2Bt0CjhpOkZUO3H_ut-174" target="xD2Bt0CjhpOkZUO3H_ut-176">
          <mxGeometry width="50" height="50" relative="1" as="geometry">
            <mxPoint x="162.5" y="2340" as="sourcePoint" />
            <mxPoint x="162.5" y="2460" as="targetPoint" />
          </mxGeometry>
        </mxCell>
        <mxCell id="xD2Bt0CjhpOkZUO3H_ut-186" value="&lt;font style=&quot;font-size: 15px;&quot;&gt;1&lt;/font&gt;" style="edgeLabel;html=1;align=center;verticalAlign=middle;resizable=0;points=[];" vertex="1" connectable="0" parent="xD2Bt0CjhpOkZUO3H_ut-185">
          <mxGeometry x="-0.1333" y="-3" relative="1" as="geometry">
            <mxPoint as="offset" />
          </mxGeometry>
        </mxCell>
        <mxCell id="xD2Bt0CjhpOkZUO3H_ut-187" value="" style="endArrow=classic;html=1;rounded=0;" edge="1" parent="1" source="xD2Bt0CjhpOkZUO3H_ut-175" target="xD2Bt0CjhpOkZUO3H_ut-176">
          <mxGeometry width="50" height="50" relative="1" as="geometry">
            <mxPoint x="174.5" y="2496" as="sourcePoint" />
            <mxPoint x="255.5" y="2604" as="targetPoint" />
          </mxGeometry>
        </mxCell>
        <mxCell id="xD2Bt0CjhpOkZUO3H_ut-188" value="&lt;font style=&quot;font-size: 15px;&quot;&gt;-1&lt;/font&gt;" style="edgeLabel;html=1;align=center;verticalAlign=middle;resizable=0;points=[];" vertex="1" connectable="0" parent="xD2Bt0CjhpOkZUO3H_ut-187">
          <mxGeometry x="-0.1333" y="-3" relative="1" as="geometry">
            <mxPoint as="offset" />
          </mxGeometry>
        </mxCell>
        <mxCell id="xD2Bt0CjhpOkZUO3H_ut-189" value="[4,6]" style="text;html=1;align=center;verticalAlign=middle;resizable=0;points=[];autosize=1;strokeColor=none;fillColor=none;" vertex="1" parent="1">
          <mxGeometry x="122.5" y="2260" width="50" height="30" as="geometry" />
        </mxCell>
        <mxCell id="xD2Bt0CjhpOkZUO3H_ut-190" value="[1,5]" style="text;html=1;align=center;verticalAlign=middle;resizable=0;points=[];autosize=1;strokeColor=none;fillColor=none;" vertex="1" parent="1">
          <mxGeometry x="327.5" y="2260" width="50" height="30" as="geometry" />
        </mxCell>
        <mxCell id="xD2Bt0CjhpOkZUO3H_ut-196" value="Iterative Interval Refinement has same process as of Naive interval propagation approach in addition with bisection&lt;br&gt;An input interval is bisected into 2 parts and then the outputs are validated. The final output interval as calculated by performing Union operation&lt;br&gt;&lt;br&gt;We choose the interval to bisect based on smear function, which is dependent on input range width and absolute gradient&lt;br&gt;In this case, it would be node &#39;y&#39; interval, so bisecting it, gives [1,3] and [3,5].&lt;br&gt;Intervals for Nodes, A,B,f considering each bisected intervals are calculated individually" style="text;html=1;align=left;verticalAlign=middle;resizable=0;points=[];autosize=1;strokeColor=none;fillColor=none;" vertex="1" parent="1">
          <mxGeometry x="35" y="2675" width="790" height="100" as="geometry" />
        </mxCell>
        <mxCell id="xD2Bt0CjhpOkZUO3H_ut-197" value="x" style="ellipse;whiteSpace=wrap;html=1;aspect=fixed;" vertex="1" parent="1">
          <mxGeometry x="140" y="2830" width="40" height="40" as="geometry" />
        </mxCell>
        <mxCell id="xD2Bt0CjhpOkZUO3H_ut-198" value="y" style="ellipse;whiteSpace=wrap;html=1;aspect=fixed;" vertex="1" parent="1">
          <mxGeometry x="340" y="2830" width="40" height="40" as="geometry" />
        </mxCell>
        <mxCell id="xD2Bt0CjhpOkZUO3H_ut-199" value="A" style="ellipse;whiteSpace=wrap;html=1;aspect=fixed;" vertex="1" parent="1">
          <mxGeometry x="140" y="2990" width="40" height="40" as="geometry" />
        </mxCell>
        <mxCell id="xD2Bt0CjhpOkZUO3H_ut-200" value="B" style="ellipse;whiteSpace=wrap;html=1;aspect=fixed;" vertex="1" parent="1">
          <mxGeometry x="340" y="2990" width="40" height="40" as="geometry" />
        </mxCell>
        <mxCell id="xD2Bt0CjhpOkZUO3H_ut-201" value="f" style="ellipse;whiteSpace=wrap;html=1;aspect=fixed;" vertex="1" parent="1">
          <mxGeometry x="245" y="3130" width="40" height="40" as="geometry" />
        </mxCell>
        <mxCell id="xD2Bt0CjhpOkZUO3H_ut-202" value="" style="endArrow=classic;html=1;rounded=0;entryX=0.5;entryY=0;entryDx=0;entryDy=0;exitX=0.5;exitY=1;exitDx=0;exitDy=0;" edge="1" parent="1" source="xD2Bt0CjhpOkZUO3H_ut-197" target="xD2Bt0CjhpOkZUO3H_ut-199">
          <mxGeometry width="50" height="50" relative="1" as="geometry">
            <mxPoint x="370" y="2950" as="sourcePoint" />
            <mxPoint x="420" y="2900" as="targetPoint" />
          </mxGeometry>
        </mxCell>
        <mxCell id="xD2Bt0CjhpOkZUO3H_ut-203" value="&lt;font style=&quot;font-size: 15px;&quot;&gt;2&lt;/font&gt;" style="edgeLabel;html=1;align=center;verticalAlign=middle;resizable=0;points=[];" vertex="1" connectable="0" parent="xD2Bt0CjhpOkZUO3H_ut-202">
          <mxGeometry x="-0.1333" y="-3" relative="1" as="geometry">
            <mxPoint as="offset" />
          </mxGeometry>
        </mxCell>
        <mxCell id="xD2Bt0CjhpOkZUO3H_ut-204" value="" style="endArrow=classic;html=1;rounded=0;entryX=0.5;entryY=0;entryDx=0;entryDy=0;exitX=0.5;exitY=1;exitDx=0;exitDy=0;" edge="1" parent="1">
          <mxGeometry width="50" height="50" relative="1" as="geometry">
            <mxPoint x="359.68000000000006" y="2870" as="sourcePoint" />
            <mxPoint x="359.68000000000006" y="2990" as="targetPoint" />
          </mxGeometry>
        </mxCell>
        <mxCell id="xD2Bt0CjhpOkZUO3H_ut-205" value="&lt;font style=&quot;font-size: 15px;&quot;&gt;5&lt;br&gt;&lt;/font&gt;" style="edgeLabel;html=1;align=center;verticalAlign=middle;resizable=0;points=[];" vertex="1" connectable="0" parent="xD2Bt0CjhpOkZUO3H_ut-204">
          <mxGeometry x="-0.1333" y="-3" relative="1" as="geometry">
            <mxPoint as="offset" />
          </mxGeometry>
        </mxCell>
        <mxCell id="xD2Bt0CjhpOkZUO3H_ut-206" value="" style="endArrow=classic;html=1;rounded=0;" edge="1" parent="1" source="xD2Bt0CjhpOkZUO3H_ut-198" target="xD2Bt0CjhpOkZUO3H_ut-199">
          <mxGeometry width="50" height="50" relative="1" as="geometry">
            <mxPoint x="180" y="2890" as="sourcePoint" />
            <mxPoint x="180" y="3010" as="targetPoint" />
          </mxGeometry>
        </mxCell>
        <mxCell id="xD2Bt0CjhpOkZUO3H_ut-207" value="&lt;font style=&quot;font-size: 15px;&quot;&gt;3&lt;/font&gt;" style="edgeLabel;html=1;align=center;verticalAlign=middle;resizable=0;points=[];" vertex="1" connectable="0" parent="xD2Bt0CjhpOkZUO3H_ut-206">
          <mxGeometry x="-0.6102" y="1" relative="1" as="geometry">
            <mxPoint as="offset" />
          </mxGeometry>
        </mxCell>
        <mxCell id="xD2Bt0CjhpOkZUO3H_ut-208" value="" style="endArrow=classic;html=1;rounded=0;" edge="1" parent="1" source="xD2Bt0CjhpOkZUO3H_ut-197" target="xD2Bt0CjhpOkZUO3H_ut-200">
          <mxGeometry width="50" height="50" relative="1" as="geometry">
            <mxPoint x="354" y="2872" as="sourcePoint" />
            <mxPoint x="186" y="3007" as="targetPoint" />
          </mxGeometry>
        </mxCell>
        <mxCell id="xD2Bt0CjhpOkZUO3H_ut-209" value="&lt;font style=&quot;font-size: 15px;&quot;&gt;-1&lt;/font&gt;" style="edgeLabel;html=1;align=center;verticalAlign=middle;resizable=0;points=[];" vertex="1" connectable="0" parent="xD2Bt0CjhpOkZUO3H_ut-208">
          <mxGeometry x="-0.5543" y="-1" relative="1" as="geometry">
            <mxPoint as="offset" />
          </mxGeometry>
        </mxCell>
        <mxCell id="xD2Bt0CjhpOkZUO3H_ut-210" value="" style="endArrow=classic;html=1;rounded=0;" edge="1" parent="1" source="xD2Bt0CjhpOkZUO3H_ut-199" target="xD2Bt0CjhpOkZUO3H_ut-201">
          <mxGeometry width="50" height="50" relative="1" as="geometry">
            <mxPoint x="170" y="2880" as="sourcePoint" />
            <mxPoint x="170" y="3000" as="targetPoint" />
          </mxGeometry>
        </mxCell>
        <mxCell id="xD2Bt0CjhpOkZUO3H_ut-211" value="&lt;font style=&quot;font-size: 15px;&quot;&gt;1&lt;/font&gt;" style="edgeLabel;html=1;align=center;verticalAlign=middle;resizable=0;points=[];" vertex="1" connectable="0" parent="xD2Bt0CjhpOkZUO3H_ut-210">
          <mxGeometry x="-0.1333" y="-3" relative="1" as="geometry">
            <mxPoint as="offset" />
          </mxGeometry>
        </mxCell>
        <mxCell id="xD2Bt0CjhpOkZUO3H_ut-212" value="" style="endArrow=classic;html=1;rounded=0;" edge="1" parent="1" source="xD2Bt0CjhpOkZUO3H_ut-200" target="xD2Bt0CjhpOkZUO3H_ut-201">
          <mxGeometry width="50" height="50" relative="1" as="geometry">
            <mxPoint x="182" y="3036" as="sourcePoint" />
            <mxPoint x="263" y="3144" as="targetPoint" />
          </mxGeometry>
        </mxCell>
        <mxCell id="xD2Bt0CjhpOkZUO3H_ut-213" value="&lt;font style=&quot;font-size: 15px;&quot;&gt;-1&lt;/font&gt;" style="edgeLabel;html=1;align=center;verticalAlign=middle;resizable=0;points=[];" vertex="1" connectable="0" parent="xD2Bt0CjhpOkZUO3H_ut-212">
          <mxGeometry x="-0.1333" y="-3" relative="1" as="geometry">
            <mxPoint as="offset" />
          </mxGeometry>
        </mxCell>
        <mxCell id="xD2Bt0CjhpOkZUO3H_ut-214" value="[4,6]" style="text;html=1;align=center;verticalAlign=middle;resizable=0;points=[];autosize=1;strokeColor=none;fillColor=none;" vertex="1" parent="1">
          <mxGeometry x="130" y="2800" width="50" height="30" as="geometry" />
        </mxCell>
        <mxCell id="xD2Bt0CjhpOkZUO3H_ut-215" value="[1,3] [3,5]" style="text;html=1;align=center;verticalAlign=middle;resizable=0;points=[];autosize=1;strokeColor=none;fillColor=none;" vertex="1" parent="1">
          <mxGeometry x="325" y="2800" width="70" height="30" as="geometry" />
        </mxCell>
        <mxCell id="xD2Bt0CjhpOkZUO3H_ut-216" value="For Node A with [1,3]&lt;br&gt;lb = ReLu(x&lt;span style=&quot;font-size: 10px;&quot;&gt;&lt;sub&gt;lb&lt;/sub&gt;*w&lt;sub&gt;xA&lt;/sub&gt;&amp;nbsp;+&amp;nbsp;&lt;/span&gt;y&lt;sub&gt;lb&lt;/sub&gt;*w&lt;sub&gt;yA &lt;/sub&gt;)= 4*2+1*3 = 8+3 = 11&lt;br&gt;ub = ReLu(x&lt;sub&gt;ub&lt;/sub&gt;*w&lt;sub&gt;xA&lt;/sub&gt;&amp;nbsp;+&amp;nbsp;y&lt;sub&gt;ub&lt;/sub&gt;*w&lt;sub&gt;yA &lt;/sub&gt;) = 6*2+3*3 = 12+9 = 21&lt;br&gt;&amp;nbsp;" style="text;html=1;align=left;verticalAlign=middle;resizable=0;points=[];autosize=1;strokeColor=none;fillColor=none;" vertex="1" parent="1">
          <mxGeometry x="450" y="2820" width="310" height="80" as="geometry" />
        </mxCell>
        <mxCell id="xD2Bt0CjhpOkZUO3H_ut-217" value="For Node B with [1,3]&lt;br&gt;lb = ReLu(x&lt;span style=&quot;font-size: 10px;&quot;&gt;&lt;sub&gt;ub&lt;/sub&gt;*w&lt;sub&gt;xB&lt;/sub&gt;&amp;nbsp;+&amp;nbsp;&lt;/span&gt;y&lt;sub style=&quot;&quot;&gt;lb&lt;/sub&gt;*w&lt;sub&gt;y&lt;/sub&gt;&lt;sub style=&quot;&quot;&gt;B &lt;/sub&gt;= ReLU(6*-1+5*1) = ReLu(-6+5) = 0&lt;br&gt;ub =ReLu(xl&lt;sub style=&quot;&quot;&gt;b&lt;/sub&gt;*w&lt;sub style=&quot;&quot;&gt;xB&lt;/sub&gt;&amp;nbsp;+&amp;nbsp;y&lt;sub style=&quot;&quot;&gt;ub&lt;/sub&gt;*w&lt;sub style=&quot;&quot;&gt;yB&amp;nbsp;&lt;/sub&gt;) = 4*-1+5*3 = -4+15 = 11&lt;br&gt;&amp;nbsp;" style="text;html=1;align=left;verticalAlign=middle;resizable=1;points=[];autosize=1;strokeColor=none;fillColor=none;movable=1;rotatable=1;deletable=1;editable=1;locked=0;connectable=1;" vertex="1" parent="1">
          <mxGeometry x="450" y="3010" width="360" height="80" as="geometry" />
        </mxCell>
        <mxCell id="xD2Bt0CjhpOkZUO3H_ut-218" value="For Node A with [3,5]&lt;br&gt;lb = ReLu(x&lt;span style=&quot;font-size: 10px;&quot;&gt;&lt;sub&gt;lb&lt;/sub&gt;*w&lt;sub&gt;xA&lt;/sub&gt;&amp;nbsp;+&amp;nbsp;&lt;/span&gt;y&lt;sub&gt;lb&lt;/sub&gt;*w&lt;sub&gt;yA &lt;/sub&gt;)= 4*2+3*3 = 8+9 = 17&lt;br&gt;ub = ReLu(x&lt;sub&gt;ub&lt;/sub&gt;*w&lt;sub&gt;xA&lt;/sub&gt;&amp;nbsp;+&amp;nbsp;y&lt;sub&gt;ub&lt;/sub&gt;*w&lt;sub&gt;yA &lt;/sub&gt;) = 6*2+5*3 = 12+15 = 27&lt;br&gt;&amp;nbsp;" style="text;html=1;align=left;verticalAlign=middle;resizable=0;points=[];autosize=1;strokeColor=none;fillColor=none;" vertex="1" parent="1">
          <mxGeometry x="450" y="2910" width="320" height="80" as="geometry" />
        </mxCell>
        <mxCell id="xD2Bt0CjhpOkZUO3H_ut-220" value="For Node B with [3,5]&lt;br&gt;lb = ReLu(x&lt;span style=&quot;font-size: 10px;&quot;&gt;&lt;sub&gt;ub&lt;/sub&gt;*w&lt;sub&gt;xB&lt;/sub&gt;&amp;nbsp;+&amp;nbsp;&lt;/span&gt;y&lt;sub style=&quot;&quot;&gt;lb&lt;/sub&gt;*w&lt;sub&gt;y&lt;/sub&gt;&lt;sub style=&quot;&quot;&gt;B &lt;/sub&gt;= 6*-1+3*5 = -6+15 = 9&lt;br&gt;ub =ReLu(xl&lt;sub style=&quot;&quot;&gt;b&lt;/sub&gt;*w&lt;sub style=&quot;&quot;&gt;xB&lt;/sub&gt;&amp;nbsp;+&amp;nbsp;y&lt;sub style=&quot;&quot;&gt;ub&lt;/sub&gt;*w&lt;sub style=&quot;&quot;&gt;yB&amp;nbsp;&lt;/sub&gt;) = 4*-1+5*5 = -4+25 = 21&lt;br&gt;&amp;nbsp;" style="text;html=1;align=left;verticalAlign=middle;resizable=1;points=[];autosize=1;strokeColor=none;fillColor=none;movable=1;rotatable=1;deletable=1;editable=1;locked=0;connectable=1;" vertex="1" parent="1">
          <mxGeometry x="450" y="3109" width="310" height="80" as="geometry" />
        </mxCell>
        <mxCell id="xD2Bt0CjhpOkZUO3H_ut-221" value="x" style="ellipse;whiteSpace=wrap;html=1;aspect=fixed;" vertex="1" parent="1">
          <mxGeometry x="142.5" y="3350" width="40" height="40" as="geometry" />
        </mxCell>
        <mxCell id="xD2Bt0CjhpOkZUO3H_ut-222" value="y" style="ellipse;whiteSpace=wrap;html=1;aspect=fixed;" vertex="1" parent="1">
          <mxGeometry x="342.5" y="3350" width="40" height="40" as="geometry" />
        </mxCell>
        <mxCell id="xD2Bt0CjhpOkZUO3H_ut-223" value="A" style="ellipse;whiteSpace=wrap;html=1;aspect=fixed;" vertex="1" parent="1">
          <mxGeometry x="142.5" y="3510" width="40" height="40" as="geometry" />
        </mxCell>
        <mxCell id="xD2Bt0CjhpOkZUO3H_ut-224" value="B" style="ellipse;whiteSpace=wrap;html=1;aspect=fixed;" vertex="1" parent="1">
          <mxGeometry x="342.5" y="3510" width="40" height="40" as="geometry" />
        </mxCell>
        <mxCell id="xD2Bt0CjhpOkZUO3H_ut-225" value="f" style="ellipse;whiteSpace=wrap;html=1;aspect=fixed;" vertex="1" parent="1">
          <mxGeometry x="247.5" y="3650" width="40" height="40" as="geometry" />
        </mxCell>
        <mxCell id="xD2Bt0CjhpOkZUO3H_ut-226" value="" style="endArrow=classic;html=1;rounded=0;entryX=0.5;entryY=0;entryDx=0;entryDy=0;exitX=0.5;exitY=1;exitDx=0;exitDy=0;" edge="1" parent="1" source="xD2Bt0CjhpOkZUO3H_ut-221" target="xD2Bt0CjhpOkZUO3H_ut-223">
          <mxGeometry width="50" height="50" relative="1" as="geometry">
            <mxPoint x="372.5" y="3470" as="sourcePoint" />
            <mxPoint x="422.5" y="3420" as="targetPoint" />
          </mxGeometry>
        </mxCell>
        <mxCell id="xD2Bt0CjhpOkZUO3H_ut-227" value="&lt;font style=&quot;font-size: 15px;&quot;&gt;2&lt;/font&gt;" style="edgeLabel;html=1;align=center;verticalAlign=middle;resizable=0;points=[];" vertex="1" connectable="0" parent="xD2Bt0CjhpOkZUO3H_ut-226">
          <mxGeometry x="-0.1333" y="-3" relative="1" as="geometry">
            <mxPoint as="offset" />
          </mxGeometry>
        </mxCell>
        <mxCell id="xD2Bt0CjhpOkZUO3H_ut-228" value="" style="endArrow=classic;html=1;rounded=0;entryX=0.5;entryY=0;entryDx=0;entryDy=0;exitX=0.5;exitY=1;exitDx=0;exitDy=0;" edge="1" parent="1">
          <mxGeometry width="50" height="50" relative="1" as="geometry">
            <mxPoint x="362.18000000000006" y="3390" as="sourcePoint" />
            <mxPoint x="362.18000000000006" y="3510" as="targetPoint" />
          </mxGeometry>
        </mxCell>
        <mxCell id="xD2Bt0CjhpOkZUO3H_ut-229" value="&lt;font style=&quot;font-size: 15px;&quot;&gt;5&lt;br&gt;&lt;/font&gt;" style="edgeLabel;html=1;align=center;verticalAlign=middle;resizable=0;points=[];" vertex="1" connectable="0" parent="xD2Bt0CjhpOkZUO3H_ut-228">
          <mxGeometry x="-0.1333" y="-3" relative="1" as="geometry">
            <mxPoint as="offset" />
          </mxGeometry>
        </mxCell>
        <mxCell id="xD2Bt0CjhpOkZUO3H_ut-230" value="" style="endArrow=classic;html=1;rounded=0;" edge="1" parent="1" source="xD2Bt0CjhpOkZUO3H_ut-222" target="xD2Bt0CjhpOkZUO3H_ut-223">
          <mxGeometry width="50" height="50" relative="1" as="geometry">
            <mxPoint x="182.5" y="3410" as="sourcePoint" />
            <mxPoint x="182.5" y="3530" as="targetPoint" />
          </mxGeometry>
        </mxCell>
        <mxCell id="xD2Bt0CjhpOkZUO3H_ut-231" value="&lt;font style=&quot;font-size: 15px;&quot;&gt;3&lt;/font&gt;" style="edgeLabel;html=1;align=center;verticalAlign=middle;resizable=0;points=[];" vertex="1" connectable="0" parent="xD2Bt0CjhpOkZUO3H_ut-230">
          <mxGeometry x="-0.6102" y="1" relative="1" as="geometry">
            <mxPoint as="offset" />
          </mxGeometry>
        </mxCell>
        <mxCell id="xD2Bt0CjhpOkZUO3H_ut-232" value="" style="endArrow=classic;html=1;rounded=0;" edge="1" parent="1" source="xD2Bt0CjhpOkZUO3H_ut-221" target="xD2Bt0CjhpOkZUO3H_ut-224">
          <mxGeometry width="50" height="50" relative="1" as="geometry">
            <mxPoint x="356.5" y="3392" as="sourcePoint" />
            <mxPoint x="188.5" y="3527" as="targetPoint" />
          </mxGeometry>
        </mxCell>
        <mxCell id="xD2Bt0CjhpOkZUO3H_ut-233" value="&lt;font style=&quot;font-size: 15px;&quot;&gt;-1&lt;/font&gt;" style="edgeLabel;html=1;align=center;verticalAlign=middle;resizable=0;points=[];" vertex="1" connectable="0" parent="xD2Bt0CjhpOkZUO3H_ut-232">
          <mxGeometry x="-0.5543" y="-1" relative="1" as="geometry">
            <mxPoint as="offset" />
          </mxGeometry>
        </mxCell>
        <mxCell id="xD2Bt0CjhpOkZUO3H_ut-234" value="" style="endArrow=classic;html=1;rounded=0;" edge="1" parent="1" source="xD2Bt0CjhpOkZUO3H_ut-223" target="xD2Bt0CjhpOkZUO3H_ut-225">
          <mxGeometry width="50" height="50" relative="1" as="geometry">
            <mxPoint x="172.5" y="3400" as="sourcePoint" />
            <mxPoint x="172.5" y="3520" as="targetPoint" />
          </mxGeometry>
        </mxCell>
        <mxCell id="xD2Bt0CjhpOkZUO3H_ut-235" value="&lt;font style=&quot;font-size: 15px;&quot;&gt;1&lt;/font&gt;" style="edgeLabel;html=1;align=center;verticalAlign=middle;resizable=0;points=[];" vertex="1" connectable="0" parent="xD2Bt0CjhpOkZUO3H_ut-234">
          <mxGeometry x="-0.1333" y="-3" relative="1" as="geometry">
            <mxPoint as="offset" />
          </mxGeometry>
        </mxCell>
        <mxCell id="xD2Bt0CjhpOkZUO3H_ut-236" value="" style="endArrow=classic;html=1;rounded=0;" edge="1" parent="1" source="xD2Bt0CjhpOkZUO3H_ut-224" target="xD2Bt0CjhpOkZUO3H_ut-225">
          <mxGeometry width="50" height="50" relative="1" as="geometry">
            <mxPoint x="184.5" y="3556" as="sourcePoint" />
            <mxPoint x="265.5" y="3664" as="targetPoint" />
          </mxGeometry>
        </mxCell>
        <mxCell id="xD2Bt0CjhpOkZUO3H_ut-237" value="&lt;font style=&quot;font-size: 15px;&quot;&gt;-1&lt;/font&gt;" style="edgeLabel;html=1;align=center;verticalAlign=middle;resizable=0;points=[];" vertex="1" connectable="0" parent="xD2Bt0CjhpOkZUO3H_ut-236">
          <mxGeometry x="-0.1333" y="-3" relative="1" as="geometry">
            <mxPoint as="offset" />
          </mxGeometry>
        </mxCell>
        <mxCell id="xD2Bt0CjhpOkZUO3H_ut-238" value="[4,6]" style="text;html=1;align=center;verticalAlign=middle;resizable=0;points=[];autosize=1;strokeColor=none;fillColor=none;" vertex="1" parent="1">
          <mxGeometry x="132.5" y="3320" width="50" height="30" as="geometry" />
        </mxCell>
        <mxCell id="xD2Bt0CjhpOkZUO3H_ut-239" value="[1,3] [3,5]" style="text;html=1;align=center;verticalAlign=middle;resizable=0;points=[];autosize=1;strokeColor=none;fillColor=none;" vertex="1" parent="1">
          <mxGeometry x="327.5" y="3320" width="70" height="30" as="geometry" />
        </mxCell>
        <mxCell id="xD2Bt0CjhpOkZUO3H_ut-240" value="[11,21]&lt;br&gt;[17,27]" style="text;html=1;align=center;verticalAlign=middle;resizable=0;points=[];autosize=1;strokeColor=none;fillColor=none;" vertex="1" parent="1">
          <mxGeometry x="50" y="3503" width="60" height="40" as="geometry" />
        </mxCell>
        <mxCell id="xD2Bt0CjhpOkZUO3H_ut-241" value="[0,11]&lt;br&gt;[9,21]" style="text;html=1;align=center;verticalAlign=middle;resizable=0;points=[];autosize=1;strokeColor=none;fillColor=none;" vertex="1" parent="1">
          <mxGeometry x="395" y="3503" width="50" height="40" as="geometry" />
        </mxCell>
        <mxCell id="xD2Bt0CjhpOkZUO3H_ut-244" value="For Node f with [1,3] part&lt;br&gt;lb = ReLu(A&lt;span style=&quot;font-size: 10px;&quot;&gt;&lt;sub&gt;lb&lt;/sub&gt;*w&lt;sub&gt;Af&lt;/sub&gt;&amp;nbsp;+&amp;nbsp;&lt;/span&gt;B&lt;sub style=&quot;&quot;&gt;ub&lt;/sub&gt;*w&lt;sub&gt;Bf&lt;/sub&gt;) = 11*1+11*-1 = 11-11 = 0&lt;br&gt;ub =ReLu(x&lt;sub style=&quot;&quot;&gt;ub&lt;/sub&gt;*w&lt;sub&gt;Af&lt;/sub&gt;&amp;nbsp;+&amp;nbsp;y&lt;sub style=&quot;&quot;&gt;ub&lt;/sub&gt;*&amp;nbsp;w&lt;sub&gt;Bf&lt;/sub&gt;) =&amp;nbsp;21*1+0*-1 = 21-0 = 21&amp;nbsp;" style="text;html=1;align=left;verticalAlign=middle;resizable=1;points=[];autosize=1;strokeColor=none;fillColor=none;movable=1;rotatable=1;deletable=1;editable=1;locked=0;connectable=1;" vertex="1" parent="1">
          <mxGeometry x="505" y="3440" width="320" height="60" as="geometry" />
        </mxCell>
        <mxCell id="xD2Bt0CjhpOkZUO3H_ut-246" value="For Node f with [3,5] part&lt;br&gt;lb =A&lt;sub&gt;lb&lt;/sub&gt;*w&lt;sub&gt;Af&lt;/sub&gt;&amp;nbsp;+&amp;nbsp;B&lt;sub&gt;ub&lt;/sub&gt;*w&lt;sub&gt;Bf&lt;/sub&gt;&amp;nbsp;= 17*1+21*-1 = -4&lt;br&gt;ub =x&lt;sub&gt;ub&lt;/sub&gt;*w&lt;sub&gt;Af&lt;/sub&gt;&amp;nbsp;+&amp;nbsp;y&lt;sub&gt;ub&lt;/sub&gt;*&amp;nbsp;w&lt;sub&gt;Bf&lt;/sub&gt;&amp;nbsp;=&amp;nbsp;27*1+9*-1 = 27-9 = 21" style="text;html=1;align=left;verticalAlign=middle;resizable=1;points=[];autosize=1;strokeColor=none;fillColor=none;movable=1;rotatable=1;deletable=1;editable=1;locked=0;connectable=1;" vertex="1" parent="1">
          <mxGeometry x="505" y="3535" width="280" height="60" as="geometry" />
        </mxCell>
        <mxCell id="xD2Bt0CjhpOkZUO3H_ut-247" value="[-4,21]" style="text;html=1;align=center;verticalAlign=middle;resizable=0;points=[];autosize=1;strokeColor=none;fillColor=none;" vertex="1" parent="1">
          <mxGeometry x="227.5" y="3715" width="60" height="30" as="geometry" />
        </mxCell>
        <mxCell id="xD2Bt0CjhpOkZUO3H_ut-248" value="Still it is not true and not a tighter bound, so we bisect further" style="text;html=1;align=left;verticalAlign=middle;resizable=0;points=[];autosize=1;strokeColor=none;fillColor=none;" vertex="1" parent="1">
          <mxGeometry x="80" y="3778" width="350" height="30" as="geometry" />
        </mxCell>
        <mxCell id="xD2Bt0CjhpOkZUO3H_ut-249" value="x" style="ellipse;whiteSpace=wrap;html=1;aspect=fixed;" vertex="1" parent="1">
          <mxGeometry x="110" y="3870" width="40" height="40" as="geometry" />
        </mxCell>
        <mxCell id="xD2Bt0CjhpOkZUO3H_ut-250" value="y" style="ellipse;whiteSpace=wrap;html=1;aspect=fixed;" vertex="1" parent="1">
          <mxGeometry x="310" y="3870" width="40" height="40" as="geometry" />
        </mxCell>
        <mxCell id="xD2Bt0CjhpOkZUO3H_ut-251" value="A" style="ellipse;whiteSpace=wrap;html=1;aspect=fixed;" vertex="1" parent="1">
          <mxGeometry x="110" y="4030" width="40" height="40" as="geometry" />
        </mxCell>
        <mxCell id="xD2Bt0CjhpOkZUO3H_ut-252" value="B" style="ellipse;whiteSpace=wrap;html=1;aspect=fixed;" vertex="1" parent="1">
          <mxGeometry x="310" y="4030" width="40" height="40" as="geometry" />
        </mxCell>
        <mxCell id="xD2Bt0CjhpOkZUO3H_ut-253" value="f" style="ellipse;whiteSpace=wrap;html=1;aspect=fixed;" vertex="1" parent="1">
          <mxGeometry x="215" y="4170" width="40" height="40" as="geometry" />
        </mxCell>
        <mxCell id="xD2Bt0CjhpOkZUO3H_ut-254" value="" style="endArrow=classic;html=1;rounded=0;entryX=0.5;entryY=0;entryDx=0;entryDy=0;exitX=0.5;exitY=1;exitDx=0;exitDy=0;" edge="1" parent="1" source="xD2Bt0CjhpOkZUO3H_ut-249" target="xD2Bt0CjhpOkZUO3H_ut-251">
          <mxGeometry width="50" height="50" relative="1" as="geometry">
            <mxPoint x="340" y="3990" as="sourcePoint" />
            <mxPoint x="390" y="3940" as="targetPoint" />
          </mxGeometry>
        </mxCell>
        <mxCell id="xD2Bt0CjhpOkZUO3H_ut-255" value="&lt;font style=&quot;font-size: 15px;&quot;&gt;2&lt;/font&gt;" style="edgeLabel;html=1;align=center;verticalAlign=middle;resizable=0;points=[];" vertex="1" connectable="0" parent="xD2Bt0CjhpOkZUO3H_ut-254">
          <mxGeometry x="-0.1333" y="-3" relative="1" as="geometry">
            <mxPoint as="offset" />
          </mxGeometry>
        </mxCell>
        <mxCell id="xD2Bt0CjhpOkZUO3H_ut-256" value="" style="endArrow=classic;html=1;rounded=0;entryX=0.5;entryY=0;entryDx=0;entryDy=0;exitX=0.5;exitY=1;exitDx=0;exitDy=0;" edge="1" parent="1">
          <mxGeometry width="50" height="50" relative="1" as="geometry">
            <mxPoint x="329.68000000000006" y="3910" as="sourcePoint" />
            <mxPoint x="329.68000000000006" y="4030" as="targetPoint" />
          </mxGeometry>
        </mxCell>
        <mxCell id="xD2Bt0CjhpOkZUO3H_ut-257" value="&lt;font style=&quot;font-size: 15px;&quot;&gt;5&lt;br&gt;&lt;/font&gt;" style="edgeLabel;html=1;align=center;verticalAlign=middle;resizable=0;points=[];" vertex="1" connectable="0" parent="xD2Bt0CjhpOkZUO3H_ut-256">
          <mxGeometry x="-0.1333" y="-3" relative="1" as="geometry">
            <mxPoint as="offset" />
          </mxGeometry>
        </mxCell>
        <mxCell id="xD2Bt0CjhpOkZUO3H_ut-258" value="" style="endArrow=classic;html=1;rounded=0;" edge="1" parent="1" source="xD2Bt0CjhpOkZUO3H_ut-250" target="xD2Bt0CjhpOkZUO3H_ut-251">
          <mxGeometry width="50" height="50" relative="1" as="geometry">
            <mxPoint x="150" y="3930" as="sourcePoint" />
            <mxPoint x="150" y="4050" as="targetPoint" />
          </mxGeometry>
        </mxCell>
        <mxCell id="xD2Bt0CjhpOkZUO3H_ut-259" value="&lt;font style=&quot;font-size: 15px;&quot;&gt;3&lt;/font&gt;" style="edgeLabel;html=1;align=center;verticalAlign=middle;resizable=0;points=[];" vertex="1" connectable="0" parent="xD2Bt0CjhpOkZUO3H_ut-258">
          <mxGeometry x="-0.6102" y="1" relative="1" as="geometry">
            <mxPoint as="offset" />
          </mxGeometry>
        </mxCell>
        <mxCell id="xD2Bt0CjhpOkZUO3H_ut-260" value="" style="endArrow=classic;html=1;rounded=0;" edge="1" parent="1" source="xD2Bt0CjhpOkZUO3H_ut-249" target="xD2Bt0CjhpOkZUO3H_ut-252">
          <mxGeometry width="50" height="50" relative="1" as="geometry">
            <mxPoint x="324" y="3912" as="sourcePoint" />
            <mxPoint x="156" y="4047" as="targetPoint" />
          </mxGeometry>
        </mxCell>
        <mxCell id="xD2Bt0CjhpOkZUO3H_ut-261" value="&lt;font style=&quot;font-size: 15px;&quot;&gt;-1&lt;/font&gt;" style="edgeLabel;html=1;align=center;verticalAlign=middle;resizable=0;points=[];" vertex="1" connectable="0" parent="xD2Bt0CjhpOkZUO3H_ut-260">
          <mxGeometry x="-0.5543" y="-1" relative="1" as="geometry">
            <mxPoint as="offset" />
          </mxGeometry>
        </mxCell>
        <mxCell id="xD2Bt0CjhpOkZUO3H_ut-262" value="" style="endArrow=classic;html=1;rounded=0;" edge="1" parent="1" source="xD2Bt0CjhpOkZUO3H_ut-251" target="xD2Bt0CjhpOkZUO3H_ut-253">
          <mxGeometry width="50" height="50" relative="1" as="geometry">
            <mxPoint x="140" y="3920" as="sourcePoint" />
            <mxPoint x="140" y="4040" as="targetPoint" />
          </mxGeometry>
        </mxCell>
        <mxCell id="xD2Bt0CjhpOkZUO3H_ut-263" value="&lt;font style=&quot;font-size: 15px;&quot;&gt;1&lt;/font&gt;" style="edgeLabel;html=1;align=center;verticalAlign=middle;resizable=0;points=[];" vertex="1" connectable="0" parent="xD2Bt0CjhpOkZUO3H_ut-262">
          <mxGeometry x="-0.1333" y="-3" relative="1" as="geometry">
            <mxPoint as="offset" />
          </mxGeometry>
        </mxCell>
        <mxCell id="xD2Bt0CjhpOkZUO3H_ut-264" value="" style="endArrow=classic;html=1;rounded=0;" edge="1" parent="1" source="xD2Bt0CjhpOkZUO3H_ut-252" target="xD2Bt0CjhpOkZUO3H_ut-253">
          <mxGeometry width="50" height="50" relative="1" as="geometry">
            <mxPoint x="152" y="4076" as="sourcePoint" />
            <mxPoint x="233" y="4184" as="targetPoint" />
          </mxGeometry>
        </mxCell>
        <mxCell id="xD2Bt0CjhpOkZUO3H_ut-265" value="&lt;font style=&quot;font-size: 15px;&quot;&gt;-1&lt;/font&gt;" style="edgeLabel;html=1;align=center;verticalAlign=middle;resizable=0;points=[];" vertex="1" connectable="0" parent="xD2Bt0CjhpOkZUO3H_ut-264">
          <mxGeometry x="-0.1333" y="-3" relative="1" as="geometry">
            <mxPoint as="offset" />
          </mxGeometry>
        </mxCell>
        <mxCell id="xD2Bt0CjhpOkZUO3H_ut-266" value="[4,6]" style="text;html=1;align=center;verticalAlign=middle;resizable=0;points=[];autosize=1;strokeColor=none;fillColor=none;" vertex="1" parent="1">
          <mxGeometry x="100" y="3840" width="50" height="30" as="geometry" />
        </mxCell>
        <mxCell id="xD2Bt0CjhpOkZUO3H_ut-267" value="[1,2] [2,3] [3,4] [4,5]" style="text;html=1;align=center;verticalAlign=middle;resizable=0;points=[];autosize=1;strokeColor=none;fillColor=none;" vertex="1" parent="1">
          <mxGeometry x="265" y="3840" width="130" height="30" as="geometry" />
        </mxCell>
        <mxCell id="xD2Bt0CjhpOkZUO3H_ut-268" value="For Node A with [1,2]&lt;br&gt;lb = ReLu(x&lt;span style=&quot;font-size: 10px;&quot;&gt;&lt;sub&gt;lb&lt;/sub&gt;*w&lt;sub&gt;xA&lt;/sub&gt;&amp;nbsp;+&amp;nbsp;&lt;/span&gt;y&lt;sub&gt;lb&lt;/sub&gt;*w&lt;sub&gt;yA &lt;/sub&gt;)= 4*2+1*3 = 8+3 = 11&lt;br&gt;ub = ReLu(x&lt;sub&gt;ub&lt;/sub&gt;*w&lt;sub&gt;xA&lt;/sub&gt;&amp;nbsp;+&amp;nbsp;y&lt;sub&gt;ub&lt;/sub&gt;*w&lt;sub&gt;yA &lt;/sub&gt;) = 6*2+2*3 = 12+6 = 18&lt;br&gt;&amp;nbsp;" style="text;html=1;align=left;verticalAlign=middle;resizable=1;points=[];autosize=1;strokeColor=none;fillColor=none;movable=1;rotatable=1;deletable=1;editable=1;locked=0;connectable=1;" vertex="1" parent="1">
          <mxGeometry x="445" y="3860" width="310" height="80" as="geometry" />
        </mxCell>
        <mxCell id="xD2Bt0CjhpOkZUO3H_ut-269" value="For Node A with [2,3]&lt;br&gt;lb = ReLu(x&lt;span style=&quot;font-size: 10px;&quot;&gt;&lt;sub&gt;lb&lt;/sub&gt;*w&lt;sub&gt;xA&lt;/sub&gt;&amp;nbsp;+&amp;nbsp;&lt;/span&gt;y&lt;sub&gt;lb&lt;/sub&gt;*w&lt;sub&gt;yA &lt;/sub&gt;)= 4*2+2*3 = 8+6 = 14&lt;br&gt;ub = ReLu(x&lt;sub&gt;ub&lt;/sub&gt;*w&lt;sub&gt;xA&lt;/sub&gt;&amp;nbsp;+&amp;nbsp;y&lt;sub&gt;ub&lt;/sub&gt;*w&lt;sub&gt;yA &lt;/sub&gt;) = 6*2+3*3 = 12+9 = 21&lt;br&gt;&amp;nbsp;" style="text;html=1;align=left;verticalAlign=middle;resizable=1;points=[];autosize=1;strokeColor=none;fillColor=none;movable=1;rotatable=1;deletable=1;editable=1;locked=0;connectable=1;" vertex="1" parent="1">
          <mxGeometry x="445" y="3950" width="310" height="80" as="geometry" />
        </mxCell>
        <mxCell id="xD2Bt0CjhpOkZUO3H_ut-270" value="For Node B with [2,3]&lt;br&gt;lb = ReLu(x&lt;span style=&quot;font-size: 10px;&quot;&gt;&lt;sub&gt;ub&lt;/sub&gt;*w&lt;sub&gt;xB&lt;/sub&gt;&amp;nbsp;+&amp;nbsp;&lt;/span&gt;y&lt;sub style=&quot;&quot;&gt;lb&lt;/sub&gt;*w&lt;sub&gt;y&lt;/sub&gt;&lt;sub style=&quot;&quot;&gt;B &lt;/sub&gt;= 6*-1+5*2 = -6+10 = 4&lt;br&gt;ub =ReLu(xl&lt;sub style=&quot;&quot;&gt;b&lt;/sub&gt;*w&lt;sub style=&quot;&quot;&gt;xB&lt;/sub&gt;&amp;nbsp;+&amp;nbsp;y&lt;sub style=&quot;&quot;&gt;ub&lt;/sub&gt;*w&lt;sub style=&quot;&quot;&gt;yB&amp;nbsp;&lt;/sub&gt;) = 4*-1+5*3 = -4+15 = 11&lt;br&gt;&amp;nbsp;" style="text;html=1;align=left;verticalAlign=middle;resizable=1;points=[];autosize=1;strokeColor=none;fillColor=none;movable=1;rotatable=1;deletable=1;editable=1;locked=0;connectable=1;" vertex="1" parent="1">
          <mxGeometry x="445" y="4569" width="310" height="80" as="geometry" />
        </mxCell>
        <mxCell id="xD2Bt0CjhpOkZUO3H_ut-272" value="For Node B with [1,2]&lt;br&gt;lb = ReLu(x&lt;span style=&quot;font-size: 10px;&quot;&gt;&lt;sub&gt;ub&lt;/sub&gt;*w&lt;sub&gt;xB&lt;/sub&gt;&amp;nbsp;+&amp;nbsp;&lt;/span&gt;y&lt;sub style=&quot;&quot;&gt;lb&lt;/sub&gt;*w&lt;sub&gt;y&lt;/sub&gt;&lt;sub style=&quot;&quot;&gt;B &lt;/sub&gt;= ReLU(6*-1+5*1) = ReLu(-6+5) = 0&lt;br&gt;ub =ReLu(xl&lt;sub style=&quot;&quot;&gt;b&lt;/sub&gt;*w&lt;sub style=&quot;&quot;&gt;xB&lt;/sub&gt;&amp;nbsp;+&amp;nbsp;y&lt;sub style=&quot;&quot;&gt;ub&lt;/sub&gt;*w&lt;sub style=&quot;&quot;&gt;yB&amp;nbsp;&lt;/sub&gt;) = 4*-1+5*2 = -4+10 = 6&lt;br&gt;&amp;nbsp;" style="text;html=1;align=left;verticalAlign=middle;resizable=1;points=[];autosize=1;strokeColor=none;fillColor=none;movable=1;rotatable=1;deletable=1;editable=1;locked=0;connectable=1;" vertex="1" parent="1">
          <mxGeometry x="445" y="4470" width="360" height="80" as="geometry" />
        </mxCell>
        <mxCell id="xD2Bt0CjhpOkZUO3H_ut-273" value="For Node A with [3,4]&lt;br&gt;lb = ReLu(x&lt;span style=&quot;font-size: 10px;&quot;&gt;&lt;sub&gt;lb&lt;/sub&gt;*w&lt;sub&gt;xA&lt;/sub&gt;&amp;nbsp;+&amp;nbsp;&lt;/span&gt;y&lt;sub&gt;lb&lt;/sub&gt;*w&lt;sub&gt;yA &lt;/sub&gt;)= 4*2+3*3 = 8+9 = 17&lt;br&gt;ub = ReLu(x&lt;sub&gt;ub&lt;/sub&gt;*w&lt;sub&gt;xA&lt;/sub&gt;&amp;nbsp;+&amp;nbsp;y&lt;sub&gt;ub&lt;/sub&gt;*w&lt;sub&gt;yA &lt;/sub&gt;) = 6*2+4*3 = 12+12 = 24&lt;br&gt;&amp;nbsp;" style="text;html=1;align=left;verticalAlign=middle;resizable=1;points=[];autosize=1;strokeColor=none;fillColor=none;movable=1;rotatable=1;deletable=1;editable=1;locked=0;connectable=1;" vertex="1" parent="1">
          <mxGeometry x="440" y="4020" width="320" height="80" as="geometry" />
        </mxCell>
        <mxCell id="xD2Bt0CjhpOkZUO3H_ut-274" value="For Node A with [4,5]&lt;br&gt;lb = ReLu(x&lt;span style=&quot;font-size: 10px;&quot;&gt;&lt;sub&gt;lb&lt;/sub&gt;*w&lt;sub&gt;xA&lt;/sub&gt;&amp;nbsp;+&amp;nbsp;&lt;/span&gt;y&lt;sub&gt;lb&lt;/sub&gt;*w&lt;sub&gt;yA &lt;/sub&gt;)= 4*2+4*3 = 8+12 = 20&lt;br&gt;ub = ReLu(x&lt;sub&gt;ub&lt;/sub&gt;*w&lt;sub&gt;xA&lt;/sub&gt;&amp;nbsp;+&amp;nbsp;y&lt;sub&gt;ub&lt;/sub&gt;*w&lt;sub&gt;yA &lt;/sub&gt;) = 6*2+5*3 = 12+15 = 27&lt;br&gt;&amp;nbsp;" style="text;html=1;align=left;verticalAlign=middle;resizable=1;points=[];autosize=1;strokeColor=none;fillColor=none;movable=1;rotatable=1;deletable=1;editable=1;locked=0;connectable=1;" vertex="1" parent="1">
          <mxGeometry x="440" y="4110" width="320" height="80" as="geometry" />
        </mxCell>
        <mxCell id="xD2Bt0CjhpOkZUO3H_ut-275" value="For Node B with [4,5]&lt;br&gt;lb = ReLu(x&lt;span style=&quot;font-size: 10px;&quot;&gt;&lt;sub&gt;ub&lt;/sub&gt;*w&lt;sub&gt;xB&lt;/sub&gt;&amp;nbsp;+&amp;nbsp;&lt;/span&gt;y&lt;sub style=&quot;&quot;&gt;lb&lt;/sub&gt;*w&lt;sub&gt;y&lt;/sub&gt;&lt;sub style=&quot;&quot;&gt;B &lt;/sub&gt;= 6*-1+4*5 = -6+20 = 14&lt;br&gt;ub =ReLu(xl&lt;sub style=&quot;&quot;&gt;b&lt;/sub&gt;*w&lt;sub style=&quot;&quot;&gt;xB&lt;/sub&gt;&amp;nbsp;+&amp;nbsp;y&lt;sub style=&quot;&quot;&gt;ub&lt;/sub&gt;*w&lt;sub style=&quot;&quot;&gt;yB&amp;nbsp;&lt;/sub&gt;) = 4*-1+5*5 = -4+25 = 21&lt;br&gt;&amp;nbsp;" style="text;html=1;align=left;verticalAlign=middle;resizable=1;points=[];autosize=1;strokeColor=none;fillColor=none;movable=1;rotatable=1;deletable=1;editable=1;locked=0;connectable=1;" vertex="1" parent="1">
          <mxGeometry x="445" y="4769" width="310" height="80" as="geometry" />
        </mxCell>
        <mxCell id="xD2Bt0CjhpOkZUO3H_ut-276" value="For Node B with [3,4]&lt;br&gt;lb = ReLu(x&lt;span style=&quot;font-size: 10px;&quot;&gt;&lt;sub&gt;ub&lt;/sub&gt;*w&lt;sub&gt;xB&lt;/sub&gt;&amp;nbsp;+&amp;nbsp;&lt;/span&gt;y&lt;sub style=&quot;&quot;&gt;lb&lt;/sub&gt;*w&lt;sub&gt;y&lt;/sub&gt;&lt;sub style=&quot;&quot;&gt;B &lt;/sub&gt;= ReLU(6*-1+3*5) = -6+15 = 9&lt;br&gt;ub =ReLu(xl&lt;sub style=&quot;&quot;&gt;b&lt;/sub&gt;*w&lt;sub style=&quot;&quot;&gt;xB&lt;/sub&gt;&amp;nbsp;+&amp;nbsp;y&lt;sub style=&quot;&quot;&gt;ub&lt;/sub&gt;*w&lt;sub style=&quot;&quot;&gt;yB&amp;nbsp;&lt;/sub&gt;) = 4*-1+5*4 = -4+20 = 16&lt;br&gt;&amp;nbsp;" style="text;html=1;align=left;verticalAlign=middle;resizable=1;points=[];autosize=1;strokeColor=none;fillColor=none;movable=1;rotatable=1;deletable=1;editable=1;locked=0;connectable=1;" vertex="1" parent="1">
          <mxGeometry x="445" y="4670" width="330" height="80" as="geometry" />
        </mxCell>
        <mxCell id="xD2Bt0CjhpOkZUO3H_ut-277" value="x" style="ellipse;whiteSpace=wrap;html=1;aspect=fixed;" vertex="1" parent="1">
          <mxGeometry x="105" y="4490" width="40" height="40" as="geometry" />
        </mxCell>
        <mxCell id="xD2Bt0CjhpOkZUO3H_ut-278" value="y" style="ellipse;whiteSpace=wrap;html=1;aspect=fixed;" vertex="1" parent="1">
          <mxGeometry x="305" y="4490" width="40" height="40" as="geometry" />
        </mxCell>
        <mxCell id="xD2Bt0CjhpOkZUO3H_ut-279" value="A" style="ellipse;whiteSpace=wrap;html=1;aspect=fixed;" vertex="1" parent="1">
          <mxGeometry x="105" y="4650" width="40" height="40" as="geometry" />
        </mxCell>
        <mxCell id="xD2Bt0CjhpOkZUO3H_ut-280" value="B" style="ellipse;whiteSpace=wrap;html=1;aspect=fixed;" vertex="1" parent="1">
          <mxGeometry x="305" y="4650" width="40" height="40" as="geometry" />
        </mxCell>
        <mxCell id="xD2Bt0CjhpOkZUO3H_ut-281" value="f" style="ellipse;whiteSpace=wrap;html=1;aspect=fixed;" vertex="1" parent="1">
          <mxGeometry x="210" y="4790" width="40" height="40" as="geometry" />
        </mxCell>
        <mxCell id="xD2Bt0CjhpOkZUO3H_ut-282" value="" style="endArrow=classic;html=1;rounded=0;entryX=0.5;entryY=0;entryDx=0;entryDy=0;exitX=0.5;exitY=1;exitDx=0;exitDy=0;" edge="1" parent="1" source="xD2Bt0CjhpOkZUO3H_ut-277" target="xD2Bt0CjhpOkZUO3H_ut-279">
          <mxGeometry width="50" height="50" relative="1" as="geometry">
            <mxPoint x="335" y="4610" as="sourcePoint" />
            <mxPoint x="385" y="4560" as="targetPoint" />
          </mxGeometry>
        </mxCell>
        <mxCell id="xD2Bt0CjhpOkZUO3H_ut-283" value="&lt;font style=&quot;font-size: 15px;&quot;&gt;2&lt;/font&gt;" style="edgeLabel;html=1;align=center;verticalAlign=middle;resizable=0;points=[];" vertex="1" connectable="0" parent="xD2Bt0CjhpOkZUO3H_ut-282">
          <mxGeometry x="-0.1333" y="-3" relative="1" as="geometry">
            <mxPoint as="offset" />
          </mxGeometry>
        </mxCell>
        <mxCell id="xD2Bt0CjhpOkZUO3H_ut-284" value="" style="endArrow=classic;html=1;rounded=0;entryX=0.5;entryY=0;entryDx=0;entryDy=0;exitX=0.5;exitY=1;exitDx=0;exitDy=0;" edge="1" parent="1">
          <mxGeometry width="50" height="50" relative="1" as="geometry">
            <mxPoint x="324.68000000000006" y="4530" as="sourcePoint" />
            <mxPoint x="324.68000000000006" y="4650" as="targetPoint" />
          </mxGeometry>
        </mxCell>
        <mxCell id="xD2Bt0CjhpOkZUO3H_ut-285" value="&lt;font style=&quot;font-size: 15px;&quot;&gt;5&lt;br&gt;&lt;/font&gt;" style="edgeLabel;html=1;align=center;verticalAlign=middle;resizable=0;points=[];" vertex="1" connectable="0" parent="xD2Bt0CjhpOkZUO3H_ut-284">
          <mxGeometry x="-0.1333" y="-3" relative="1" as="geometry">
            <mxPoint as="offset" />
          </mxGeometry>
        </mxCell>
        <mxCell id="xD2Bt0CjhpOkZUO3H_ut-286" value="" style="endArrow=classic;html=1;rounded=0;" edge="1" parent="1" source="xD2Bt0CjhpOkZUO3H_ut-278" target="xD2Bt0CjhpOkZUO3H_ut-279">
          <mxGeometry width="50" height="50" relative="1" as="geometry">
            <mxPoint x="145" y="4550" as="sourcePoint" />
            <mxPoint x="145" y="4670" as="targetPoint" />
          </mxGeometry>
        </mxCell>
        <mxCell id="xD2Bt0CjhpOkZUO3H_ut-287" value="&lt;font style=&quot;font-size: 15px;&quot;&gt;3&lt;/font&gt;" style="edgeLabel;html=1;align=center;verticalAlign=middle;resizable=0;points=[];" vertex="1" connectable="0" parent="xD2Bt0CjhpOkZUO3H_ut-286">
          <mxGeometry x="-0.6102" y="1" relative="1" as="geometry">
            <mxPoint as="offset" />
          </mxGeometry>
        </mxCell>
        <mxCell id="xD2Bt0CjhpOkZUO3H_ut-288" value="" style="endArrow=classic;html=1;rounded=0;" edge="1" parent="1" source="xD2Bt0CjhpOkZUO3H_ut-277" target="xD2Bt0CjhpOkZUO3H_ut-280">
          <mxGeometry width="50" height="50" relative="1" as="geometry">
            <mxPoint x="319" y="4532" as="sourcePoint" />
            <mxPoint x="151" y="4667" as="targetPoint" />
          </mxGeometry>
        </mxCell>
        <mxCell id="xD2Bt0CjhpOkZUO3H_ut-289" value="&lt;font style=&quot;font-size: 15px;&quot;&gt;-1&lt;/font&gt;" style="edgeLabel;html=1;align=center;verticalAlign=middle;resizable=0;points=[];" vertex="1" connectable="0" parent="xD2Bt0CjhpOkZUO3H_ut-288">
          <mxGeometry x="-0.5543" y="-1" relative="1" as="geometry">
            <mxPoint as="offset" />
          </mxGeometry>
        </mxCell>
        <mxCell id="xD2Bt0CjhpOkZUO3H_ut-290" value="" style="endArrow=classic;html=1;rounded=0;" edge="1" parent="1" source="xD2Bt0CjhpOkZUO3H_ut-279" target="xD2Bt0CjhpOkZUO3H_ut-281">
          <mxGeometry width="50" height="50" relative="1" as="geometry">
            <mxPoint x="135" y="4540" as="sourcePoint" />
            <mxPoint x="135" y="4660" as="targetPoint" />
          </mxGeometry>
        </mxCell>
        <mxCell id="xD2Bt0CjhpOkZUO3H_ut-291" value="&lt;font style=&quot;font-size: 15px;&quot;&gt;1&lt;/font&gt;" style="edgeLabel;html=1;align=center;verticalAlign=middle;resizable=0;points=[];" vertex="1" connectable="0" parent="xD2Bt0CjhpOkZUO3H_ut-290">
          <mxGeometry x="-0.1333" y="-3" relative="1" as="geometry">
            <mxPoint as="offset" />
          </mxGeometry>
        </mxCell>
        <mxCell id="xD2Bt0CjhpOkZUO3H_ut-292" value="" style="endArrow=classic;html=1;rounded=0;" edge="1" parent="1" source="xD2Bt0CjhpOkZUO3H_ut-280" target="xD2Bt0CjhpOkZUO3H_ut-281">
          <mxGeometry width="50" height="50" relative="1" as="geometry">
            <mxPoint x="147" y="4696" as="sourcePoint" />
            <mxPoint x="228" y="4804" as="targetPoint" />
          </mxGeometry>
        </mxCell>
        <mxCell id="xD2Bt0CjhpOkZUO3H_ut-293" value="&lt;font style=&quot;font-size: 15px;&quot;&gt;-1&lt;/font&gt;" style="edgeLabel;html=1;align=center;verticalAlign=middle;resizable=0;points=[];" vertex="1" connectable="0" parent="xD2Bt0CjhpOkZUO3H_ut-292">
          <mxGeometry x="-0.1333" y="-3" relative="1" as="geometry">
            <mxPoint as="offset" />
          </mxGeometry>
        </mxCell>
        <mxCell id="xD2Bt0CjhpOkZUO3H_ut-294" value="[4,6]" style="text;html=1;align=center;verticalAlign=middle;resizable=0;points=[];autosize=1;strokeColor=none;fillColor=none;" vertex="1" parent="1">
          <mxGeometry x="95" y="4460" width="50" height="30" as="geometry" />
        </mxCell>
        <mxCell id="xD2Bt0CjhpOkZUO3H_ut-295" value="[1,2] [2,3] [3,4] [4,5]" style="text;html=1;align=center;verticalAlign=middle;resizable=0;points=[];autosize=1;strokeColor=none;fillColor=none;" vertex="1" parent="1">
          <mxGeometry x="260" y="4460" width="130" height="30" as="geometry" />
        </mxCell>
        <mxCell id="xD2Bt0CjhpOkZUO3H_ut-296" value="[11,18]&lt;br&gt;[14,21]&lt;br&gt;[17,24]&lt;br&gt;[20,27]" style="text;html=1;align=center;verticalAlign=middle;resizable=0;points=[];autosize=1;strokeColor=none;fillColor=none;" vertex="1" parent="1">
          <mxGeometry x="25" y="4015" width="60" height="70" as="geometry" />
        </mxCell>
        <mxCell id="xD2Bt0CjhpOkZUO3H_ut-297" value="[0,6]&lt;br&gt;[4,11]&lt;br&gt;[9,16]&lt;br&gt;[14,21]" style="text;html=1;align=center;verticalAlign=middle;resizable=0;points=[];autosize=1;strokeColor=none;fillColor=none;" vertex="1" parent="1">
          <mxGeometry x="350" y="4635" width="60" height="70" as="geometry" />
        </mxCell>
        <mxCell id="xD2Bt0CjhpOkZUO3H_ut-298" value="[11,18]&lt;br&gt;[14,21]&lt;br&gt;[17,24]&lt;br&gt;[20,27]" style="text;html=1;align=center;verticalAlign=middle;resizable=0;points=[];autosize=1;strokeColor=none;fillColor=none;" vertex="1" parent="1">
          <mxGeometry x="20" y="4630" width="60" height="70" as="geometry" />
        </mxCell>
        <mxCell id="xD2Bt0CjhpOkZUO3H_ut-299" value="x" style="ellipse;whiteSpace=wrap;html=1;aspect=fixed;" vertex="1" parent="1">
          <mxGeometry x="110" y="4900" width="40" height="40" as="geometry" />
        </mxCell>
        <mxCell id="xD2Bt0CjhpOkZUO3H_ut-300" value="y" style="ellipse;whiteSpace=wrap;html=1;aspect=fixed;" vertex="1" parent="1">
          <mxGeometry x="310" y="4900" width="40" height="40" as="geometry" />
        </mxCell>
        <mxCell id="xD2Bt0CjhpOkZUO3H_ut-301" value="A" style="ellipse;whiteSpace=wrap;html=1;aspect=fixed;" vertex="1" parent="1">
          <mxGeometry x="110" y="5060" width="40" height="40" as="geometry" />
        </mxCell>
        <mxCell id="xD2Bt0CjhpOkZUO3H_ut-302" value="B" style="ellipse;whiteSpace=wrap;html=1;aspect=fixed;" vertex="1" parent="1">
          <mxGeometry x="310" y="5060" width="40" height="40" as="geometry" />
        </mxCell>
        <mxCell id="xD2Bt0CjhpOkZUO3H_ut-303" value="f" style="ellipse;whiteSpace=wrap;html=1;aspect=fixed;" vertex="1" parent="1">
          <mxGeometry x="215" y="5200" width="40" height="40" as="geometry" />
        </mxCell>
        <mxCell id="xD2Bt0CjhpOkZUO3H_ut-304" value="" style="endArrow=classic;html=1;rounded=0;entryX=0.5;entryY=0;entryDx=0;entryDy=0;exitX=0.5;exitY=1;exitDx=0;exitDy=0;" edge="1" parent="1" source="xD2Bt0CjhpOkZUO3H_ut-299" target="xD2Bt0CjhpOkZUO3H_ut-301">
          <mxGeometry width="50" height="50" relative="1" as="geometry">
            <mxPoint x="340" y="5020" as="sourcePoint" />
            <mxPoint x="390" y="4970" as="targetPoint" />
          </mxGeometry>
        </mxCell>
        <mxCell id="xD2Bt0CjhpOkZUO3H_ut-305" value="&lt;font style=&quot;font-size: 15px;&quot;&gt;2&lt;/font&gt;" style="edgeLabel;html=1;align=center;verticalAlign=middle;resizable=0;points=[];" vertex="1" connectable="0" parent="xD2Bt0CjhpOkZUO3H_ut-304">
          <mxGeometry x="-0.1333" y="-3" relative="1" as="geometry">
            <mxPoint as="offset" />
          </mxGeometry>
        </mxCell>
        <mxCell id="xD2Bt0CjhpOkZUO3H_ut-306" value="" style="endArrow=classic;html=1;rounded=0;entryX=0.5;entryY=0;entryDx=0;entryDy=0;exitX=0.5;exitY=1;exitDx=0;exitDy=0;" edge="1" parent="1">
          <mxGeometry width="50" height="50" relative="1" as="geometry">
            <mxPoint x="329.68000000000006" y="4940" as="sourcePoint" />
            <mxPoint x="329.68000000000006" y="5060" as="targetPoint" />
          </mxGeometry>
        </mxCell>
        <mxCell id="xD2Bt0CjhpOkZUO3H_ut-307" value="&lt;font style=&quot;font-size: 15px;&quot;&gt;5&lt;br&gt;&lt;/font&gt;" style="edgeLabel;html=1;align=center;verticalAlign=middle;resizable=0;points=[];" vertex="1" connectable="0" parent="xD2Bt0CjhpOkZUO3H_ut-306">
          <mxGeometry x="-0.1333" y="-3" relative="1" as="geometry">
            <mxPoint as="offset" />
          </mxGeometry>
        </mxCell>
        <mxCell id="xD2Bt0CjhpOkZUO3H_ut-308" value="" style="endArrow=classic;html=1;rounded=0;" edge="1" parent="1" source="xD2Bt0CjhpOkZUO3H_ut-300" target="xD2Bt0CjhpOkZUO3H_ut-301">
          <mxGeometry width="50" height="50" relative="1" as="geometry">
            <mxPoint x="150" y="4960" as="sourcePoint" />
            <mxPoint x="150" y="5080" as="targetPoint" />
          </mxGeometry>
        </mxCell>
        <mxCell id="xD2Bt0CjhpOkZUO3H_ut-309" value="&lt;font style=&quot;font-size: 15px;&quot;&gt;3&lt;/font&gt;" style="edgeLabel;html=1;align=center;verticalAlign=middle;resizable=0;points=[];" vertex="1" connectable="0" parent="xD2Bt0CjhpOkZUO3H_ut-308">
          <mxGeometry x="-0.6102" y="1" relative="1" as="geometry">
            <mxPoint as="offset" />
          </mxGeometry>
        </mxCell>
        <mxCell id="xD2Bt0CjhpOkZUO3H_ut-310" value="" style="endArrow=classic;html=1;rounded=0;" edge="1" parent="1" source="xD2Bt0CjhpOkZUO3H_ut-299" target="xD2Bt0CjhpOkZUO3H_ut-302">
          <mxGeometry width="50" height="50" relative="1" as="geometry">
            <mxPoint x="324" y="4942" as="sourcePoint" />
            <mxPoint x="156" y="5077" as="targetPoint" />
          </mxGeometry>
        </mxCell>
        <mxCell id="xD2Bt0CjhpOkZUO3H_ut-311" value="&lt;font style=&quot;font-size: 15px;&quot;&gt;-1&lt;/font&gt;" style="edgeLabel;html=1;align=center;verticalAlign=middle;resizable=0;points=[];" vertex="1" connectable="0" parent="xD2Bt0CjhpOkZUO3H_ut-310">
          <mxGeometry x="-0.5543" y="-1" relative="1" as="geometry">
            <mxPoint as="offset" />
          </mxGeometry>
        </mxCell>
        <mxCell id="xD2Bt0CjhpOkZUO3H_ut-312" value="" style="endArrow=classic;html=1;rounded=0;" edge="1" parent="1" source="xD2Bt0CjhpOkZUO3H_ut-301" target="xD2Bt0CjhpOkZUO3H_ut-303">
          <mxGeometry width="50" height="50" relative="1" as="geometry">
            <mxPoint x="140" y="4950" as="sourcePoint" />
            <mxPoint x="140" y="5070" as="targetPoint" />
          </mxGeometry>
        </mxCell>
        <mxCell id="xD2Bt0CjhpOkZUO3H_ut-313" value="&lt;font style=&quot;font-size: 15px;&quot;&gt;1&lt;/font&gt;" style="edgeLabel;html=1;align=center;verticalAlign=middle;resizable=0;points=[];" vertex="1" connectable="0" parent="xD2Bt0CjhpOkZUO3H_ut-312">
          <mxGeometry x="-0.1333" y="-3" relative="1" as="geometry">
            <mxPoint as="offset" />
          </mxGeometry>
        </mxCell>
        <mxCell id="xD2Bt0CjhpOkZUO3H_ut-314" value="" style="endArrow=classic;html=1;rounded=0;" edge="1" parent="1" source="xD2Bt0CjhpOkZUO3H_ut-302" target="xD2Bt0CjhpOkZUO3H_ut-303">
          <mxGeometry width="50" height="50" relative="1" as="geometry">
            <mxPoint x="152" y="5106" as="sourcePoint" />
            <mxPoint x="233" y="5214" as="targetPoint" />
          </mxGeometry>
        </mxCell>
        <mxCell id="xD2Bt0CjhpOkZUO3H_ut-315" value="&lt;font style=&quot;font-size: 15px;&quot;&gt;-1&lt;/font&gt;" style="edgeLabel;html=1;align=center;verticalAlign=middle;resizable=0;points=[];" vertex="1" connectable="0" parent="xD2Bt0CjhpOkZUO3H_ut-314">
          <mxGeometry x="-0.1333" y="-3" relative="1" as="geometry">
            <mxPoint as="offset" />
          </mxGeometry>
        </mxCell>
        <mxCell id="xD2Bt0CjhpOkZUO3H_ut-316" value="[4,6]" style="text;html=1;align=center;verticalAlign=middle;resizable=0;points=[];autosize=1;strokeColor=none;fillColor=none;" vertex="1" parent="1">
          <mxGeometry x="100" y="4870" width="50" height="30" as="geometry" />
        </mxCell>
        <mxCell id="xD2Bt0CjhpOkZUO3H_ut-317" value="[1,2] [2,3] [3,4] [4,5]" style="text;html=1;align=center;verticalAlign=middle;resizable=0;points=[];autosize=1;strokeColor=none;fillColor=none;" vertex="1" parent="1">
          <mxGeometry x="265" y="4870" width="130" height="30" as="geometry" />
        </mxCell>
        <mxCell id="xD2Bt0CjhpOkZUO3H_ut-318" value="[0,6]&lt;br&gt;[4,11]&lt;br&gt;[9,16]&lt;br&gt;[14,21]" style="text;html=1;align=center;verticalAlign=middle;resizable=0;points=[];autosize=1;strokeColor=none;fillColor=none;" vertex="1" parent="1">
          <mxGeometry x="355" y="5045" width="60" height="70" as="geometry" />
        </mxCell>
        <mxCell id="xD2Bt0CjhpOkZUO3H_ut-319" value="[11,18]&lt;br&gt;[14,21]&lt;br&gt;[17,24]&lt;br&gt;[20,27]" style="text;html=1;align=center;verticalAlign=middle;resizable=0;points=[];autosize=1;strokeColor=none;fillColor=none;" vertex="1" parent="1">
          <mxGeometry x="25" y="5040" width="60" height="70" as="geometry" />
        </mxCell>
        <mxCell id="xD2Bt0CjhpOkZUO3H_ut-324" value="For Node f with [1,2] part&lt;br&gt;lb =A&lt;sub&gt;lb&lt;/sub&gt;*w&lt;sub&gt;Af&lt;/sub&gt;&amp;nbsp;+&amp;nbsp;B&lt;sub&gt;ub&lt;/sub&gt;*w&lt;sub&gt;Bf&lt;/sub&gt;&amp;nbsp;= 11*1+6*-1 = 11-6 = 5&lt;br&gt;ub =x&lt;sub&gt;ub&lt;/sub&gt;*w&lt;sub&gt;Af&lt;/sub&gt;&amp;nbsp;+&amp;nbsp;y&lt;sub&gt;ub&lt;/sub&gt;*&amp;nbsp;w&lt;sub&gt;Bf&lt;/sub&gt;&amp;nbsp;=&amp;nbsp;18*1+0*-1 = 18-0 = 18" style="text;html=1;align=left;verticalAlign=middle;resizable=1;points=[];autosize=1;strokeColor=none;fillColor=none;movable=1;rotatable=1;deletable=1;editable=1;locked=0;connectable=1;" vertex="1" parent="1">
          <mxGeometry x="440" y="4890" width="280" height="60" as="geometry" />
        </mxCell>
        <mxCell id="xD2Bt0CjhpOkZUO3H_ut-325" value="For Node f with [2,3] part&lt;br&gt;lb =A&lt;sub&gt;lb&lt;/sub&gt;*w&lt;sub&gt;Af&lt;/sub&gt;&amp;nbsp;+&amp;nbsp;B&lt;sub&gt;ub&lt;/sub&gt;*w&lt;sub&gt;Bf&lt;/sub&gt;&amp;nbsp;= 14*1+11*-1 = 14-11 = 3&lt;br&gt;ub =x&lt;sub&gt;ub&lt;/sub&gt;*w&lt;sub&gt;Af&lt;/sub&gt;&amp;nbsp;+&amp;nbsp;y&lt;sub&gt;ub&lt;/sub&gt;*&amp;nbsp;w&lt;sub&gt;Bf&lt;/sub&gt;&amp;nbsp;=&amp;nbsp;21*1+4*-1 = 21-4 = 17" style="text;html=1;align=left;verticalAlign=middle;resizable=1;points=[];autosize=1;strokeColor=none;fillColor=none;movable=1;rotatable=1;deletable=1;editable=1;locked=0;connectable=1;" vertex="1" parent="1">
          <mxGeometry x="440" y="4980" width="280" height="60" as="geometry" />
        </mxCell>
        <mxCell id="xD2Bt0CjhpOkZUO3H_ut-326" value="For Node f with [3,4] part&lt;br&gt;lb =A&lt;sub&gt;lb&lt;/sub&gt;*w&lt;sub&gt;Af&lt;/sub&gt;&amp;nbsp;+&amp;nbsp;B&lt;sub&gt;ub&lt;/sub&gt;*w&lt;sub&gt;Bf&lt;/sub&gt;&amp;nbsp;= 17*1+16*-1 = 1&lt;br&gt;ub =x&lt;sub&gt;ub&lt;/sub&gt;*w&lt;sub&gt;Af&lt;/sub&gt;&amp;nbsp;+&amp;nbsp;y&lt;sub&gt;ub&lt;/sub&gt;*&amp;nbsp;w&lt;sub&gt;Bf&lt;/sub&gt;&amp;nbsp;=&amp;nbsp;24*1+9*-1 = 24-9 = 15" style="text;html=1;align=left;verticalAlign=middle;resizable=1;points=[];autosize=1;strokeColor=none;fillColor=none;movable=1;rotatable=1;deletable=1;editable=1;locked=0;connectable=1;" vertex="1" parent="1">
          <mxGeometry x="440" y="5070" width="280" height="60" as="geometry" />
        </mxCell>
        <mxCell id="xD2Bt0CjhpOkZUO3H_ut-327" value="For Node f with [4,5] part&lt;br&gt;lb =A&lt;sub&gt;lb&lt;/sub&gt;*w&lt;sub&gt;Af&lt;/sub&gt;&amp;nbsp;+&amp;nbsp;B&lt;sub&gt;ub&lt;/sub&gt;*w&lt;sub&gt;Bf&lt;/sub&gt;&amp;nbsp;= 20*1+21*-1 = -1&lt;br&gt;ub =x&lt;sub&gt;ub&lt;/sub&gt;*w&lt;sub&gt;Af&lt;/sub&gt;&amp;nbsp;+&amp;nbsp;y&lt;sub&gt;ub&lt;/sub&gt;*&amp;nbsp;w&lt;sub&gt;Bf&lt;/sub&gt;&amp;nbsp;=&amp;nbsp;27*1+14*-1 = 27-14 = 13" style="text;html=1;align=left;verticalAlign=middle;resizable=1;points=[];autosize=1;strokeColor=none;fillColor=none;movable=1;rotatable=1;deletable=1;editable=1;locked=0;connectable=1;" vertex="1" parent="1">
          <mxGeometry x="440" y="5160" width="290" height="60" as="geometry" />
        </mxCell>
        <mxCell id="xD2Bt0CjhpOkZUO3H_ut-328" value="[5,18]&lt;br&gt;[3,17]&lt;br&gt;[1,15]&lt;br&gt;[-1,13]" style="text;html=1;align=center;verticalAlign=middle;resizable=0;points=[];autosize=1;strokeColor=none;fillColor=none;" vertex="1" parent="1">
          <mxGeometry x="120" y="5210" width="60" height="70" as="geometry" />
        </mxCell>
        <mxCell id="xD2Bt0CjhpOkZUO3H_ut-329" value="if we union the f intervals we get&lt;br&gt;[5,18] U&amp;nbsp;&lt;span style=&quot;text-align: center;&quot;&gt;[3,17] U&amp;nbsp;&lt;/span&gt;&lt;span style=&quot;text-align: center;&quot;&gt;[1,15] U&amp;nbsp;&lt;/span&gt;&lt;span style=&quot;text-align: center;&quot;&gt;[-1,13] = [-1,18]&lt;br&gt;Which is safe&lt;br&gt;Hence we get safe intervals with ReluVal by implementing bisection&lt;br&gt;&lt;/span&gt;" style="text;html=1;align=left;verticalAlign=middle;resizable=0;points=[];autosize=1;strokeColor=none;fillColor=none;" vertex="1" parent="1">
          <mxGeometry x="40" y="5308" width="380" height="70" as="geometry" />
        </mxCell>
      </root>
    </mxGraphModel>
  </diagram>
</mxfile>
